<?xml version="1.0" standalone="no"?>
<!DOCTYPE svg PUBLIC "-//W3C//DTD SVG 20010904//EN"
 "http://www.w3.org/TR/2001/REC-SVG-20010904/DTD/svg10.dtd">
<svg version="1.0" xmlns="http://www.w3.org/2000/svg"
 width="300.000000pt" height="300.000000pt" viewBox="0 0 300.000000 300.000000"
 preserveAspectRatio="xMidYMid meet">
<metadata>
Created by potrace 1.10, written by Peter Selinger 2001-2011
</metadata>
<g transform="translate(0.000000,300.000000) scale(0.050000,-0.050000)"
fill="#6441a5" stroke="none">
<path d="M3015 5681 c-41 -8 -91 -28 -110 -45 -19 -17 -79 -41 -133 -54 -134
-33 -207 -73 -306 -170 -46 -45 -109 -106 -140 -135 -309 -291 -396 -546 -317
-926 24 -117 30 -209 20 -350 -8 -137 -6 -183 9 -161 23 32 32 -2 25 -85 -1
-19 6 -35 17 -35 11 0 18 -7 17 -15 -7 -32 28 -166 47 -177 13 -8 15 83 6 255
-16 308 10 546 73 667 56 108 157 233 177 220 10 -6 22 -3 28 6 6 10 53 19
106 21 122 5 210 81 156 136 -18 17 -29 46 -26 64 8 40 99 88 123 64 10 -10
32 -13 49 -6 22 9 26 4 13 -17 -14 -23 -11 -24 15 -2 28 22 43 16 105 -38 40
-35 78 -58 85 -51 6 7 -3 18 -21 25 -18 7 -33 20 -33 30 0 9 32 -1 72 -23 39
-22 82 -39 95 -37 47 6 71 -3 105 -36 18 -19 56 -38 84 -41 27 -4 82 -23 122
-43 40 -20 96 -42 126 -49 29 -7 59 -31 66 -53 7 -22 25 -40 40 -40 15 0 31
-11 37 -25 8 -20 10 -20 11 0 5 66 42 10 89 -134 74 -224 66 -741 -13 -838
-25 -31 -36 -166 -12 -152 62 39 136 309 137 501 1 67 18 188 39 270 78 311
66 634 -28 739 -19 20 -29 52 -22 73 30 93 -179 325 -421 470 -75 45 -159 101
-187 126 -89 79 -180 99 -325 71z"/>
<path d="M2735 4896 c6 -23 22 -34 39 -27 16 6 33 11 38 11 31 0 -1 37 -39 44
-39 8 -46 2 -38 -28z"/>
<path d="M2625 4619 c-134 -18 -234 -73 -256 -141 -19 -60 -3 -64 100 -29 114
38 140 39 170 3 19 -23 11 -31 -43 -43 -36 -7 -88 -25 -116 -39 -143 -74 -210
-212 -80 -167 57 20 136 14 207 -14 51 -20 4 -48 -82 -49 -60 0 -96 -38 -40
-42 87 -5 119 -15 153 -46 21 -19 43 -26 50 -16 6 11 51 29 99 41 171 43 229
185 143 350 -17 32 -30 84 -30 116 0 57 -60 102 -126 94 -13 -1 -80 -9 -149
-18z"/>
<path d="M3303 4602 c-52 -24 -64 -40 -57 -77 5 -25 -2 -53 -16 -61 -13 -7
-46 -55 -72 -104 -44 -83 -59 -100 -88 -100 -5 0 8 -18 29 -39 22 -22 46 -65
53 -95 7 -31 25 -76 40 -100 17 -28 20 -48 8 -56 -32 -20 -23 -50 11 -37 40
16 88 -47 88 -117 1 -65 -37 -94 -63 -49 -21 38 -97 44 -131 10 -18 -18 -15
-30 11 -50 31 -24 31 -27 -11 -39 -24 -7 -40 -20 -35 -28 6 -9 5 -30 -2 -47
-13 -36 -68 -21 -68 19 0 32 1 32 -126 39 -66 3 -100 -4 -107 -22 -6 -15 -35
-32 -66 -39 -112 -24 -166 -110 -138 -217 14 -51 33 -93 43 -93 10 0 13 13 8
28 -12 29 65 48 239 57 46 3 79 12 74 20 -18 28 48 15 73 -15 20 -24 20 -30
-3 -31 -36 0 -107 -55 -92 -71 7 -7 73 -16 147 -21 74 -5 151 -18 171 -28 30
-17 34 -14 24 16 -10 29 -7 28 19 -5 19 -25 23 -44 10 -52 -13 -8 -10 -17 7
-23 21 -7 19 -18 -11 -52 -21 -24 -28 -43 -15 -43 13 0 23 -10 23 -22 0 -13
-21 -19 -50 -13 -27 5 -50 4 -50 -3 0 -21 -137 -23 -151 -1 -8 14 -22 13 -41
-3 -58 -48 -291 -8 -348 60 -27 32 -68 62 -90 67 -22 4 -38 18 -35 31 3 14
-17 24 -45 24 -31 0 -50 -11 -50 -30 0 -22 -11 -25 -47 -11 -91 34 -103 -2
-48 -152 27 -75 51 -159 52 -187 3 -89 23 -140 56 -140 26 0 27 5 7 30 -20 24
-20 30 3 30 21 1 21 4 -2 19 -17 10 -23 25 -16 33 21 21 217 -117 206 -145
-11 -30 174 -110 284 -122 46 -6 79 -18 73 -28 -6 -9 -3 -18 6 -19 115 -10
201 -58 160 -88 -20 -14 -37 -34 -37 -43 -1 -9 -9 -15 -19 -12 -10 3 -18 -4
-18 -15 0 -11 8 -20 18 -20 10 0 32 -5 48 -11 17 -7 48 8 70 31 25 27 45 35
53 22 7 -12 2 -22 -12 -22 -18 0 -19 -6 -2 -23 14 -14 16 -38 4 -70 -17 -44
-14 -47 56 -47 56 -1 67 -6 45 -20 -23 -15 -18 -19 25 -20 30 0 55 10 55 22 0
16 8 16 29 -1 111 -92 -178 -320 -349 -275 -26 6 -35 2 -27 -11 9 -14 1 -17
-22 -8 -20 8 -49 3 -65 -11 -106 -87 -418 -3 -577 156 -133 133 -315 451 -227
397 10 -6 18 5 18 26 0 20 11 48 24 61 19 19 16 24 -11 24 -20 0 -30 9 -23 20
7 11 -2 26 -19 32 -26 11 -28 18 -7 45 17 22 11 20 -19 -5 -25 -21 -45 -57
-45 -80 -1 -82 -38 -108 -52 -37 -17 85 -4 88 -157 -39 l-78 -66 38 58 38 58
-46 -24 c-25 -14 -53 -46 -63 -72 -10 -27 -48 -63 -84 -81 l-66 -34 48 47 c29
27 39 49 26 53 -36 12 -182 -78 -196 -121 -9 -28 -18 -32 -34 -16 -26 26 -61
30 -46 5 20 -32 -68 -101 -143 -114 -191 -32 -264 -68 -245 -120 12 -31 12
-49 0 -49 -11 0 -20 9 -20 20 0 11 -13 20 -30 20 -16 0 -30 8 -30 18 0 10 -18
13 -41 8 l-41 -11 42 -45 c46 -49 28 -79 -33 -56 -36 14 -36 12 0 -42 33 -50
30 -109 -3 -60 -14 20 -104 34 -104 16 0 -5 16 -33 35 -62 34 -52 34 -53 -10
-41 -42 11 -50 0 -44 -59 1 -8 -17 -21 -40 -29 -26 -10 -41 -33 -41 -64 0 -50
-47 -83 -84 -60 -12 7 4 -32 35 -85 44 -76 48 -91 18 -66 -83 68 -95 68 -85 0
5 -35 2 -68 -7 -74 -10 -6 -17 -20 -17 -32 0 -12 14 -10 35 6 27 21 25 16 -4
-19 -45 -52 -65 -193 -25 -170 14 8 17 6 7 -5 -9 -10 -27 -18 -40 -18 -33 -1
-16 -73 29 -121 47 -51 48 -73 5 -65 -61 11 -43 -140 23 -189 11 -8 5 -15 -15
-15 -19 0 -35 9 -35 20 0 11 -13 20 -29 20 -16 0 -53 34 -81 75 -52 74 -52 75
-38 15 21 -93 57 -154 158 -266 52 -57 84 -104 73 -104 -11 0 -26 9 -33 20 -7
11 -29 29 -49 39 -46 25 -48 -90 -2 -118 22 -14 23 -24 5 -46 -17 -21 -17 -34
0 -51 19 -19 18 -30 0 -48 -19 -19 -24 -18 -24 1 0 14 -9 20 -19 13 -43 -26
-97 68 -121 213 -37 229 -62 255 -53 56 9 -198 48 -293 133 -325 52 -20 54
-24 24 -49 -32 -26 -32 -28 1 -17 23 7 35 0 35 -20 0 -18 -9 -25 -23 -16 -17
10 -19 3 -8 -24 9 -21 16 -49 17 -63 2 -50 5127 -35 5140 15 6 22 2 35 -8 29
-10 -6 -18 -2 -18 10 0 11 16 21 35 21 27 1 29 4 8 18 -19 12 -21 21 -5 31 14
8 22 89 22 217 0 114 -8 193 -17 178 -9 -14 -13 49 -9 140 7 160 6 164 -22
101 -53 -115 -65 -74 -21 68 7 23 -1 17 -21 -13 -23 -36 -29 -39 -19 -10 24
70 35 210 17 210 -10 0 -19 51 -21 113 -2 62 -11 118 -20 125 -9 7 -20 30 -23
52 -12 75 -54 150 -84 151 -24 0 -23 4 4 20 31 18 30 26 -15 92 -26 39 -44 79
-39 87 21 33 -80 39 -105 6 -14 -19 -25 -24 -25 -11 0 12 13 35 29 51 33 33
21 54 -30 54 -25 0 -32 11 -25 40 6 23 1 40 -13 40 -13 0 -17 11 -9 25 8 14
-4 9 -26 -11 -45 -39 -66 -18 -66 67 0 25 -10 34 -30 26 -33 -13 -42 23 -10
43 41 25 18 44 -49 39 -54 -4 -66 1 -57 25 9 22 -1 28 -36 25 -26 -3 -66 3
-88 12 -22 9 -69 17 -105 17 -70 0 -79 10 -42 47 20 20 -123 105 -175 105 -4
0 -64 26 -133 59 -280 131 -535 219 -535 184 0 -23 -16 -13 -50 30 -31 39 -75
67 -117 75 l-68 13 -13 144 c-14 149 3 244 58 328 65 99 75 151 25 123 -49
-27 -138 -37 -124 -14 5 8 0 18 -12 22 -15 5 -15 23 -1 61 15 38 15 55 0 55
-13 0 -16 23 -8 60 8 36 5 60 -7 60 -32 0 -49 -79 -24 -109 17 -20 17 -31 1
-41 -35 -22 -44 -1 -47 117 -2 60 -7 109 -13 108 -32 -7 -160 95 -160 127 0
21 8 38 19 38 39 0 40 79 2 169 -28 64 -49 89 -66 78 -17 -10 -17 -4 2 19 18
22 20 34 5 34 -12 0 -22 9 -22 20 0 12 34 4 75 -17 111 -56 187 -71 173 -34
-8 20 9 32 60 42 91 17 141 69 66 69 -65 0 -164 37 -146 55 37 37 183 17 229
-31 38 -41 50 -45 65 -22 27 44 22 67 -32 130 -27 32 -50 63 -50 69 0 16 -136
79 -171 79 -46 0 -34 38 17 51 25 6 72 -3 105 -20 76 -40 169 -41 169 -2 0 40
-146 186 -176 176 -13 -5 -24 4 -24 18 -1 21 -5 20 -19 -2 -16 -26 -31 -26
-116 2 -87 28 -103 28 -162 -1z m-68 -1247 c42 -33 28 -55 -35 -55 -33 0 -60
8 -60 18 0 10 -23 23 -51 30 -28 7 -46 21 -39 31 13 22 149 4 185 -24z m-407
-735 c24 0 62 -14 83 -31 22 -18 27 -26 13 -19 -14 7 -52 16 -85 21 -32 4 -75
17 -94 30 -33 20 -32 21 2 11 20 -7 56 -12 81 -12z m-926 -321 c-12 -87 -18
-106 -19 -56 -3 73 17 204 29 192 4 -4 -1 -65 -10 -136z m1972 -1482 c85 -81
38 -240 -70 -234 -47 2 -48 4 -9 11 63 12 56 40 -15 56 -33 7 -60 21 -60 32 0
10 -7 16 -15 13 -42 -14 -31 79 15 125 52 52 96 51 154 -3z"/>
<path d="M2868 3800 c-38 -15 -83 -80 -56 -80 84 0 190 49 157 73 -42 31 -43
31 -101 7z"/>
<path d="M2995 3217 c13 -13 52 -25 87 -27 58 -4 61 -2 27 23 -47 34 -148 38
-114 4z"/>
</g>
</svg>
