<svg xmlns="http://www.w3.org/2000/svg" version="1.1" xmlns:xlink="http://www.w3.org/1999/xlink" xmlns:svgjs="http://svgjs.com/svgjs" width="1440" height="560" preserveAspectRatio="none" viewBox="0 0 1440 560"><g mask="url(&quot;#SvgjsMask1022&quot;)" fill="none"><path d="M121.5 81.57L188.18 120.07L188.18 197.07L121.5 235.57L54.81 197.07L54.81 120.07zM121.5 312.57L188.18 351.07L188.18 428.07L121.5 466.57L54.81 428.07L54.81 351.07zM54.81 428.07L121.5 466.57L121.5 543.57L54.81 582.07L-11.88 543.57L-11.88 466.57zM121.5 543.57L188.18 582.07L188.18 659.07L121.5 697.57L54.81 659.07L54.81 582.07zM188.18 -33.93L254.87 4.57L254.87 81.57L188.18 120.07L121.5 81.57L121.5 4.57zM254.87 81.57L321.55 120.07L321.55 197.07L254.87 235.57L188.18 197.07L188.18 120.07zM788.35 81.57L855.04 120.07L855.04 197.07L788.35 235.57L721.67 197.07L721.67 120.07zM788.35 543.57L855.04 582.07L855.04 659.07L788.35 697.57L721.67 659.07L721.67 582.07zM988.41 197.07L1055.1 235.57L1055.1 312.57L988.41 351.07L921.73 312.57L921.73 235.57zM1121.78 -33.93L1188.47 4.57L1188.47 81.57L1121.78 120.07L1055.1 81.57L1055.1 4.57zM1321.84 312.57L1388.53 351.07L1388.53 428.07L1321.84 466.57L1255.16 428.07L1255.16 351.07zM1388.53 -33.93L1455.21 4.57L1455.21 81.57L1388.53 120.07L1321.84 81.57L1321.84 4.57z" stroke="rgba(100, 65, 165, 1)" stroke-width="2"></path></g><defs><mask id="SvgjsMask1022"><rect width="1440" height="560" fill="#ffffff"></rect></mask></defs></svg>