<svg xmlns="http://www.w3.org/2000/svg" version="1.1" xmlns:xlink="http://www.w3.org/1999/xlink" xmlns:svgjs="http://svgjs.com/svgjs" width="1440" height="560" preserveAspectRatio="none" viewBox="0 0 1440 560"><g mask="url(&quot;#SvgjsMask1172&quot;)" fill="none"><path d="M0 -77L66.69 -38.5L66.69 38.5L0 77L-66.69 38.5L-66.69 -38.5zM66.69 38.5L133.37 77L133.37 154L66.69 192.5L0 154L0 77zM0 154L66.69 192.5L66.69 269.5L0 308L-66.69 269.5L-66.69 192.5zM66.69 269.5L133.37 308L133.37 385L66.69 423.5L0 385L0 308zM0 385L66.69 423.5L66.69 500.5L0 539L-66.69 500.5L-66.69 423.5zM66.69 500.5L133.37 539L133.37 616L66.69 654.5L0 616L0 539zM133.37 -77L200.06 -38.5L200.06 38.5L133.37 77L66.69 38.5L66.69 -38.5zM200.06 38.5L266.74 77L266.74 154L200.06 192.5L133.37 154L133.37 77zM133.37 154L200.06 192.5L200.06 269.5L133.37 308L66.69 269.5L66.69 192.5zM200.06 269.5L266.74 308L266.74 385L200.06 423.5L133.37 385L133.37 308zM133.37 385L200.06 423.5L200.06 500.5L133.37 539L66.69 500.5L66.69 423.5zM200.06 500.5L266.74 539L266.74 616L200.06 654.5L133.37 616L133.37 539zM266.74 -77L333.43 -38.5L333.43 38.5L266.74 77L200.06 38.5L200.06 -38.5zM333.43 38.5L400.12 77L400.12 154L333.43 192.5L266.74 154L266.74 77zM266.74 154L333.43 192.5L333.43 269.5L266.74 308L200.06 269.5L200.06 192.5zM333.43 269.5L400.12 308L400.12 385L333.43 423.5L266.74 385L266.74 308zM266.74 385L333.43 423.5L333.43 500.5L266.74 539L200.06 500.5L200.06 423.5zM333.43 500.5L400.12 539L400.12 616L333.43 654.5L266.74 616L266.74 539zM400.12 -77L466.8 -38.5L466.8 38.5L400.12 77L333.43 38.5L333.43 -38.5zM466.8 38.5L533.49 77L533.49 154L466.8 192.5L400.12 154L400.12 77zM400.12 154L466.8 192.5L466.8 269.5L400.12 308L333.43 269.5L333.43 192.5zM466.8 269.5L533.49 308L533.49 385L466.8 423.5L400.12 385L400.12 308zM400.12 385L466.8 423.5L466.8 500.5L400.12 539L333.43 500.5L333.43 423.5zM466.8 500.5L533.49 539L533.49 616L466.8 654.5L400.12 616L400.12 539zM533.49 -77L600.17 -38.5L600.17 38.5L533.49 77L466.8 38.5L466.8 -38.5zM600.17 38.5L666.86 77L666.86 154L600.17 192.5L533.49 154L533.49 77zM533.49 154L600.17 192.5L600.17 269.5L533.49 308L466.8 269.5L466.8 192.5zM600.17 269.5L666.86 308L666.86 385L600.17 423.5L533.49 385L533.49 308zM533.49 385L600.17 423.5L600.17 500.5L533.49 539L466.8 500.5L466.8 423.5zM600.17 500.5L666.86 539L666.86 616L600.17 654.5L533.49 616L533.49 539zM666.86 -77L733.54 -38.5L733.54 38.5L666.86 77L600.17 38.5L600.17 -38.5zM733.54 38.5L800.23 77L800.23 154L733.54 192.5L666.86 154L666.86 77zM666.86 154L733.54 192.5L733.54 269.5L666.86 308L600.17 269.5L600.17 192.5zM733.54 269.5L800.23 308L800.23 385L733.54 423.5L666.86 385L666.86 308zM666.86 385L733.54 423.5L733.54 500.5L666.86 539L600.17 500.5L600.17 423.5zM733.54 500.5L800.23 539L800.23 616L733.54 654.5L666.86 616L666.86 539zM800.23 -77L866.92 -38.5L866.92 38.5L800.23 77L733.54 38.5L733.54 -38.5zM866.92 38.5L933.6 77L933.6 154L866.92 192.5L800.23 154L800.23 77zM800.23 154L866.92 192.5L866.92 269.5L800.23 308L733.54 269.5L733.54 192.5zM866.92 269.5L933.6 308L933.6 385L866.92 423.5L800.23 385L800.23 308zM800.23 385L866.92 423.5L866.92 500.5L800.23 539L733.54 500.5L733.54 423.5zM866.92 500.5L933.6 539L933.6 616L866.92 654.5L800.23 616L800.23 539zM933.6 -77L1000.29 -38.5L1000.29 38.5L933.6 77L866.92 38.5L866.92 -38.5zM1000.29 38.5L1066.97 77L1066.97 154L1000.29 192.5L933.6 154L933.6 77zM933.6 154L1000.29 192.5L1000.29 269.5L933.6 308L866.92 269.5L866.92 192.5zM1000.29 269.5L1066.97 308L1066.97 385L1000.29 423.5L933.6 385L933.6 308zM933.6 385L1000.29 423.5L1000.29 500.5L933.6 539L866.92 500.5L866.92 423.5zM1000.29 500.5L1066.97 539L1066.97 616L1000.29 654.5L933.6 616L933.6 539zM1066.97 -77L1133.66 -38.5L1133.66 38.5L1066.97 77L1000.29 38.5L1000.29 -38.5zM1133.66 38.5L1200.35 77L1200.35 154L1133.66 192.5L1066.97 154L1066.97 77zM1066.97 154L1133.66 192.5L1133.66 269.5L1066.97 308L1000.29 269.5L1000.29 192.5zM1133.66 269.5L1200.35 308L1200.35 385L1133.66 423.5L1066.97 385L1066.97 308zM1066.97 385L1133.66 423.5L1133.66 500.5L1066.97 539L1000.29 500.5L1000.29 423.5zM1133.66 500.5L1200.35 539L1200.35 616L1133.66 654.5L1066.97 616L1066.97 539zM1200.35 -77L1267.03 -38.5L1267.03 38.5L1200.35 77L1133.66 38.5L1133.66 -38.5zM1267.03 38.5L1333.72 77L1333.72 154L1267.03 192.5L1200.35 154L1200.35 77zM1200.35 154L1267.03 192.5L1267.03 269.5L1200.35 308L1133.66 269.5L1133.66 192.5zM1267.03 269.5L1333.72 308L1333.72 385L1267.03 423.5L1200.35 385L1200.35 308zM1200.35 385L1267.03 423.5L1267.03 500.5L1200.35 539L1133.66 500.5L1133.66 423.5zM1267.03 500.5L1333.72 539L1333.72 616L1267.03 654.5L1200.35 616L1200.35 539zM1333.72 -77L1400.4 -38.5L1400.4 38.5L1333.72 77L1267.03 38.5L1267.03 -38.5zM1400.4 38.5L1467.09 77L1467.09 154L1400.4 192.5L1333.72 154L1333.72 77zM1333.72 154L1400.4 192.5L1400.4 269.5L1333.72 308L1267.03 269.5L1267.03 192.5zM1400.4 269.5L1467.09 308L1467.09 385L1400.4 423.5L1333.72 385L1333.72 308zM1333.72 385L1400.4 423.5L1400.4 500.5L1333.72 539L1267.03 500.5L1267.03 423.5zM1400.4 500.5L1467.09 539L1467.09 616L1400.4 654.5L1333.72 616L1333.72 539z" stroke="rgba(100, 65, 165, 1)" stroke-width="2"></path></g><defs><mask id="SvgjsMask1172"><rect width="1440" height="560" fill="#ffffff"></rect></mask></defs></svg>