<svg version="1.2" xmlns="http://www.w3.org/2000/svg" viewBox="0 0 192 192" width="192" height="192">
	<title>android-icon-192x192</title>
	<style>
		.s0 { opacity: .97;fill: #f8f1ef } 
		.s1 { opacity: .99;fill: #3c1358 } 
		.s2 { opacity: .97;fill: #a36d5d } 
	</style>
	<g id="Background">
		<path id="Path 0" fill-rule="evenodd" class="s0" d="m91.3 7c1.3 0 1.7 0.4 1.2 0.9-0.6 0.4-2.6 1.3-8 3.1l2.4-2c1.3-1.1 3.3-2 4.4-2zm22 2c0.4 0 1.4 0.7 2.2 1.5 0.8 0.8 1.2 1.5 0.8 1.5-0.5 0.1-1.5-0.6-2.3-1.5-0.8-0.8-1.1-1.5-0.7-1.5zm-38.4 7.5c0.3 0.3-0.4 1.4-1.6 2.5-1.3 1.1-2.6 2-3 2-0.5 0 0.3-1.1 1.6-2.5 1.3-1.4 2.7-2.3 3-2zm49.6 0l3 2.2c1.7 1.2 4.3 3.6 6 5.5 1.7 1.8 3.6 4.3 4.2 5.5 0.7 1.3 1.3 2.9 1.3 3.5-0.1 0.7-1-0.4-2-2.5-1.1-2-3.1-4.5-4.3-5.5-1.3-0.9-3.7-3.3-5.3-5.2zm-59.7 8.6c0.8-0.1 0.9 0.4 0.3 1.6-0.4 1-1.5 2.5-2.2 3.3-0.8 0.8-2.6 3.2-4.1 5.2-1.8 2.4-3.3 6.4-4.3 11.3-1.1 5.7-1.2 8.7-0.5 12.7 0.6 2.9 1 5.5 1 5.8 0 0.3-0.6-0.4-1.2-1.5-0.7-1.1-1.3-2.2-1.3-2.5-0.1-0.3-0.5-1.3-0.8-2.3-0.4-0.9-0.9-2.4-1.2-3.2-0.3-0.8 0-2.4 0.5-3.5 0.6-1.1 1.2-3.5 1.4-5.3 0.1-1.8 2.2-7.1 4.5-11.9 2.3-4.8 4.7-8.9 5.4-9.2 0.7-0.2 1.8-0.5 2.5-0.5zm19.2 7.9c0.3 0 2.3 0.6 4.5 1.4 2.5 0.8 6.1 1.2 9.5 0.8 3.8-0.3 7.2 0 11 1.3 3 1 6.9 2.9 8.5 4.2 1.7 1.3 3.5 2.2 4 2 0.6-0.2 2 0.7 3.3 2 1.2 1.2 2.2 3 2.2 3.8 0 0.8 1.4 4.6 3 8.5 1.7 3.8 3.4 10 3.8 13.7 0.4 3.7 0.4 9.7-0.1 13.3-0.6 4.4-0.5 6.6 0.2 6.7 0.6 0.2 1.1 0.7 1.1 1.3 0 0.5-0.4 0.8-1 0.5-0.5-0.3-1-0.2-1.1 0.2 0 0.4-0.2 1.5-0.4 2.3-0.1 0.8-0.6 2.8-1 4.5-0.7 3-0.7 3 0.9 0.7 0.9-1.2 1.8-3 2-4 0.2-0.9 0.9-2.8 1.4-4.2 0.5-1.4 1-5 1-8 0-3 0.7-7.2 1.6-9.3 0.9-2 2.1-7.9 2.7-13 0.6-5.1 0.8-11.7 0.4-14.7-0.4-3.1-1.5-6.5-2.6-7.8-1.1-1.3-1.5-2.4-0.9-2.7 0.6-0.3 1 0 1 0.7 0 0.7 0.9 2.2 2 3.3 1.1 1.1 2 2.7 2 3.5 0 0.8 0.3 1.8 0.7 2.3 0.5 0.5 0.9 2.6 1.1 4.8q0.2 3.9-1 3.8c-0.8 0-0.5 0.8 0.7 2.1 1.6 1.6 1.7 2 0.5 2-0.8 0-1.6 1-1.7 2.2-0.1 1.3-0.4 3.9-0.6 5.8-0.3 1.9-0.5 3.6-0.6 3.7 0 0.2 0 0.4 0.1 0.5 0.1 0.2-0.3 1.2-0.9 2.3-0.6 1.1-1.2 4.9-1.4 8.5-0.1 3.6-0.6 7-1 7.7-0.5 0.7-0.7 2.4-0.4 3.8 0.3 1.4 0.2 2.5-0.2 2.5-0.5-0.1-1.1 1.7-1.5 4-0.5 2.5-1.5 4.2-2.7 4.7-1 0.4-3.7 4.4-6 8.8-2.2 4.4-4.4 9.8-4.7 12-0.4 2.2-0.6 5.6-0.4 7.5 0.1 1.9 1.3 4.7 2.6 6.2 1.8 2.1 2.4 3.9 2.4 7.5 0 4.5-0.3 5.1-5.8 10.1-3.1 2.9-7.9 6.4-10.7 7.7-2.7 1.3-8.7 2.8-13.2 3.4-4.6 0.6-8.7 1.3-9.3 1.6-0.5 0.3-3.1 0-5.7-0.6-2.7-0.5-6.9-2.6-9.8-4.7-2.7-2.1-6.4-6-8.2-8.8-1.8-2.7-3.6-6.9-4.7-13.9l-1.3 7-1.4-3.2c-1.3-3-1.5-3.1-3.9-1.8-1.5 0.8-2.5 2.2-2.6 3.6 0 1.3-0.6 5.8-1.3 9.9-0.6 4.1-1.4 7.3-1.7 7-0.3-0.3 0-3.7 0.6-7.5 0.6-3.9 1.4-7.9 1.7-9 0.6-1.9 0.3-1.8-4 0.7-2.9 1.7-5.3 2.5-6.2 2-1-0.5-2.4 0.1-4 1.8-1.4 1.4-2.5 2-2.5 1.5 0.1-0.6-0.7-0.3-1.6 0.5-1 0.8-5.1 2.2-9.3 3.1-7.1 1.4-7.6 1.7-7.2 4 0.3 1.9 0.1 2.2-1 1.3-0.8-0.6-2.2-1.4-3.1-1.8-1.4-0.5-1.7-0.2-1.3 1.4 0.3 1.1 0.1 2.2-0.5 2.5-0.5 0.3-1 1.4-1 2.5 0 1.6-0.4 1.8-2.1 1.2-1.8-0.6-2.1-0.4-1.8 1.3 0.3 1.2-0.1 1.9-0.8 1.7-0.7-0.1-1.3 0.5-1.3 1.3 0 0.8-0.7 1.7-1.5 2-1.2 0.4-1.5-0.5-1.5-4.5 0-4.5 0.3-5.2 3.2-7.3 1.8-1.2 4.4-2.8 5.8-3.5 1.4-0.7 3.4-1.3 4.5-1.3 1.1 0 5.8-1.6 10.5-3.5 4.7-2 9.9-4.1 11.5-4.6 1.7-0.6 3.5-1.6 4-2.2 0.6-0.6 2.1-1.3 3.5-1.4 1.4-0.2 5.5-1.8 9.3-3.8 3.7-1.9 7.4-3.4 8.2-3.4 0.8 0 2.4-0.9 3.5-2 1.7-1.7 2-3.4 2-9.5 0-5.9-0.5-8.5-2.4-12.3-1.3-2.6-2.9-6.6-3.5-9-0.6-2.3-2.2-5.5-3.5-7-1.4-1.5-2.4-3.4-2.3-4.2 0.1-0.8-0.4-1.4-1-1.3-0.7 0.2-1.3-0.2-1.3-0.7 0-0.6 0.5-1 1-1 0.6 0 1-1.1 1-2.5 0-1.4-0.4-2.7-1-3q-1-0.5 0-2c0.6-0.8 0.8-2.6 0.5-4-0.3-1.6 0-2.5 0.8-2.5 0.8 0 1-1.1 0.6-3.8-0.3-2-0.2-4.8 0.2-6.2 0.6-2 0.8-1.5 1 2.5 0.2 2.7 0.2 6.4 0.1 8.2-0.1 1.8 0.3 5.2 0.8 7.5 0.6 2.4 1.3 5.2 1.6 6.3 0.2 1.1 0.7 2.2 1 2.5 0.3 0.3 0.3-3.1-0.1-7.5-0.4-4.7-0.2-11.5 0.5-16.5 0.6-4.7 2.1-10.8 3.3-13.5 1.2-2.8 4.8-8.6 8-12.9 3.2-4.3 7.3-8.7 9-9.7 1.8-1.1 3.4-1.9 3.7-1.9zm46.3 108.2c0.7 0.2 1.2 1.9 1.2 3.8 0 1.8-0.6 3.5-1.2 3.6-1 0.3-1-0.2-0.4-1.9 0.5-1.2 0.5-3.1 0.1-4.1-0.6-1.3-0.5-1.7 0.3-1.4zm36.2 14.8c0.6 0 1.9 0.7 3 1.5 1.1 0.8 4.9 2.5 8.5 3.6 3.6 1.2 8.2 3.4 10.3 5 2.7 2.1 3.7 3.6 3.8 8.4l-2.8-2.8c-1.5-1.5-3.6-2.7-4.5-2.7-1 0-1.8-0.7-1.8-1.5 0-0.8-0.8-1.5-1.7-1.5-1.6 0.1-1.6-0.1-0.3-1.5 1.4-1.5 1.2-1.6-1.7-1.6-1.8 0.1-3.3-0.3-3.3-0.7 0-0.4-1-0.9-2.2-1-1.3-0.2-4-0.4-6-0.5-2.3-0.1-3.8-0.7-3.8-1.5 0-0.7 1-1.2 2.3-1.2 1.8-0.1 1.9-0.2 0.7-1-0.8-0.6-1-1-0.5-1z"/>
		<path id="Path 1" class="s1" d="m94 8.1c-2.5 0.5-6.2 1.8-8.3 2.9-2 1.1-4.4 2-5.2 2-0.9 0-4.8 3.3-8.8 7.4-4 4-7.9 8.2-8.7 9.3-0.8 1-2.7 3.5-4.2 5.6-1.8 2.4-3.3 6.3-4.3 11.2-1.3 6.7-1.3 8.3 0 14.8 0.8 3.9 1.7 11.5 1.9 16.7 0.1 5.2 0.6 10 0.9 10.5 0.4 0.5 0.9 2.1 1.2 3.5 0.3 1.4 0.8 2.7 1.1 3 0.3 0.3 0.3-3.1-0.1-7.5-0.4-4.7-0.2-11.5 0.5-16.5 0.6-4.7 2.1-10.8 3.3-13.5 1.1-2.7 4.9-8.6 8.2-13 3.4-4.4 7.6-8.8 9.3-9.8 2.9-1.5 3.7-1.6 7.5-0.3 2.5 0.8 6.4 1.2 9.7 0.8 3.8-0.3 7.2 0.1 11 1.3 3 1 6.8 2.9 8.5 4.2 1.7 1.3 3.5 2.2 4 2 0.5-0.2 2 0.7 3.3 2 1.2 1.3 2.2 3 2.2 3.8 0 0.8 1.3 4.6 3 8.5 1.7 3.9 3.3 10 3.8 13.8 0.4 3.7 0.4 9.6-0.1 13.2-0.6 4.4-0.5 6.6 0.2 6.8 0.6 0.1 1.1 0.7 1.1 1.2 0 0.5-0.4 0.8-1 0.5-0.6-0.3-1-0.2-1.1 0.3 0 0.4-0.2 1.4-0.4 2.2-0.1 0.8-0.6 2.8-1 4.5-0.7 3-0.7 3 0.9 0.8 0.9-1.3 1.8-3.1 2-4 0.2-1 0.9-2.9 1.4-4.3 0.5-1.4 1-5 1-8 0-3 0.7-7.1 1.5-9 0.9-1.9 2.1-7.5 2.7-12.5 0.6-5 0.9-11.7 0.6-15-0.4-4.2-1.2-6.5-2.6-7.7-1.2-1.1-1.8-2.5-1.4-3.5 0.4-1 0.4-2.8 0-4-0.3-1.3-3.2-5-6.3-8.2-3.2-3.3-8.7-7.9-12.3-10.2-3.6-2.4-8.1-4.9-10-5.6-1.9-0.7-5.1-1.2-7-1.2-1.9 0.1-5.5 0.5-8 1zm-41.1 136.1c-1.9 1.3-5.1 3.4-7.1 4.6-2.3 1.3-4.4 1.9-5.3 1.5-1-0.5-2.4 0.1-4 1.7-1.4 1.4-2.5 2.1-2.5 1.5 0.1-0.6-0.7-0.3-1.6 0.5-1 0.8-5.2 2.2-9.3 3.1-7.1 1.5-7.6 1.7-7.2 4 0.3 1.9 0.1 2.2-1 1.3-0.8-0.6-2.2-1.4-3.1-1.7-1.4-0.6-1.7-0.3-1.3 1.3 0.3 1.1 0.1 2.2-0.5 2.5-0.5 0.3-1 1.4-1 2.5 0 1.6-0.4 1.9-2.1 1.3-1.8-0.7-2.1-0.5-1.8 1.2 0.3 1.2-0.1 1.9-0.8 1.8-0.7-0.2-1.3 0.4-1.3 1.2 0 0.8-0.6 1.7-1.2 1.9-0.9 0.2-1.4 3.1-1.5 9l-0.3 8.6h192c0-17-0.1-17.7-2.7-20.2-1.6-1.5-3.6-2.8-4.5-2.8-1 0-1.8-0.7-1.8-1.5 0-0.8-0.8-1.5-1.7-1.5-1.6 0.1-1.6-0.1-0.3-1.5 1.4-1.4 1.2-1.6-1.7-1.5-1.8 0-3.3-0.3-3.3-0.7 0-0.5-1-0.9-2.2-1.1-1.3-0.2-4-0.4-6-0.5-2.3-0.1-3.8-0.7-3.8-1.4 0-0.7 1-1.4 2.3-1.6 1.7-0.2 1.1-0.6-2.3-1.8-2.5-0.9-7-2.7-10-3.9-3-1.2-8.7-3.6-12.5-5.2-3.8-1.6-7.6-3.1-8.2-3.4-0.8-0.2-1.4 0.6-1.5 2.3-0.2 1.4-0.9 2.8-1.5 3-1 0.2-1.1-0.3-0.4-1.9 0.4-1.3 0.7-2.9 0.5-3.5-0.2-0.7-0.8-1.3-1.4-1.3-0.6 0-1 2.1-1 4.8 0 4.4-0.3 5-5.8 10-3.1 3-7.9 6.4-10.7 7.7-2.7 1.3-8.7 2.8-13.2 3.4-4.6 0.6-8.8 1.3-9.3 1.6-0.5 0.3-3.1 0-5.7-0.5-2.8-0.6-6.9-2.7-9.8-4.8-2.7-2.1-6.5-6-8.2-8.7-1.8-2.8-3.6-7-4-9.5l-0.7-4.5-1.3 7-2.9-6.6z"/>
		<path id="Path 2" class="s2" d="m55.1 124.4c0 0.9 0.4 1.8 0.9 2.1 0.5 0.3 1.2 0.3 1.5 0 0.3-0.3-0.1-1.2-0.9-2.1-1.2-1.4-1.3-1.4-1.5 0z"/>
		<path id="Path 3" class="s1" d="m82.4 55.1c-1 0.4-3.4 0.8-5.2 0.8-1.7 0.1-3.9 0.3-4.7 0.6-0.8 0.3-1.5 1-1.5 1.5 0 0.6 3 1 7 1 3.8 0 7.7-0.2 8.5-0.5 0.8-0.3 1.5-1.3 1.5-2.3 0-0.9-0.3-1.4-0.7-1-0.5 0.5-1.3 0.4-1.9-0.1-0.6-0.5-1.9-0.5-3 0zm25.1 1.7c-0.4 1 0.1 2.2 1.2 3 1 0.7 3.8 1.3 6.3 1.3 2.5 0.1 5.7 0.3 7.2 0.5q2.8 0.4 2.5-0.9c-0.2-0.6-2.6-1.9-5.3-2.8-2.7-0.9-6.3-1.9-8.1-2.2-2.5-0.5-3.4-0.2-3.8 1.1zm-26 7.2c1.6 0.7 1.4 0.9-1.5 0.9-1.9 0.1-5 0.7-6.8 1.4-1.8 0.6-3.2 1.8-3.2 2.4 0 0.7 0.9 1.3 2 1.3 1.1 0 1.8-0.5 1.5-1-0.3-0.5 0.1-1.3 0.7-1.6 0.8-0.4 2 0.4 3 1.7l1.7 2.4c3.6-3.9 4.5-4.3 5.8-3.6 1.7 0.9 1.7 1-0.2 1.7-1.7 0.5-1.8 0.8-0.5 1.5 1.3 0.7 1.2 1-0.5 2.3-1.9 1.5-1.8 1.5 1.5 0.9 1.9-0.3 4.3-1.3 5.3-2.2 1-0.9 1.8-2.1 1.8-2.6 0-0.5-0.7-0.3-1.6 0.5-1.4 1.4-1.6 1.2-1.5-1.3 0-1.8-0.8-3.2-2.5-4.2-1.4-0.8-3.5-1.5-4.8-1.4-2.1 0-2.1 0.1-0.2 0.9zm25.8 2.1c-0.4 0.6-1.7 0.9-2.7 0.6q-2-0.5-2.8 1.4c-0.5 1.2-0.3 3 0.6 4.6 0.7 1.6 2.2 3.2 3.2 3.6 1.2 0.5 2 0.4 2.1-0.2 0.2-0.6 1.1-0.8 2-0.5 1.2 0.4 0.9-0.2-0.7-1.5-1.4-1.1-1.9-2.1-1.3-2.1 0.7 0 1.5-0.9 1.8-2 0.3-1.2 0-2-0.8-2-0.6-0.1-0.1-0.7 1.3-1.5 2.4-1.4 2.4-1.4 0.3-1.5-1.2 0-2.6 0.5-3 1.1zm5.1 1c-1 0.4-1.3 0.8-0.7 0.8 0.7 0.1 1.3 1 1.3 2.1 0 1.2 0.7 2 1.7 2 1 0 3.7 0.2 6 0.5 3.7 0.4 4.3 0.3 4-1.3-0.2-0.9-0.8-1.7-1.3-1.7-0.5-0.1-1.9-0.6-3.2-1.3-1.2-0.7-2.2-1-2.1-0.7 0 0.3-0.8 0.2-1.9-0.3-1-0.5-2.7-0.6-3.8-0.1zm-23.9 24c1.4 0.8 2.3 0.8 2.9 0 0.7-0.8 0.1-1.1-2-1.1-2.6 0.1-2.7 0.2-0.9 1.1zm10.5-0.1c0 0.5 0.9 1 2 1 1.1 0 2-0.5 2-1 0-0.5-0.9-1-2-1-1.1 0-2 0.5-2 1zm0.8 6.2c0.1 0.4-0.4 0.5-1.1 0.1-0.6-0.3-0.4 0.3 0.5 1.5 1 1.2 2.4 1.9 3 1.6 0.7-0.3 1.6 0.2 2 1 0.7 1.4-0.5 1.6-8.3 1.8-5 0.2-9.6 0-10.3-0.5-0.7-0.4-0.3-0.9 1.1-1.2 1.3-0.3 2.3-1 2.3-1.5 0-0.5-0.7-0.8-1.5-0.5-0.9 0.3-1.4 0-1.3-0.8 0.2-0.6-0.4-1-1.2-0.8-0.8 0.2-2.5 0.6-3.7 0.9-1.3 0.3-2.9 1.2-3.8 2.1-0.8 0.9-1.5 2.6-1.5 3.8 0 1.3 0.4 2.3 1 2.3 0.5 0 0.8-0.3 0.6-0.8-0.2-0.4 2.1-0.8 5.2-0.8 3.2-0.1 8.6-0.3 12.2-0.3 4-0.1 7.7 0.4 9.7 1.4 1.8 0.8 4.3 1.4 5.5 1.2 1.4-0.1 2.4-1 2.6-2.2 0.2-1.1-0.6-3.2-1.7-4.8-1.2-1.5-3.1-2.7-4.3-2.7-1.1 0-2.3-0.5-2.5-1-0.1-0.5-1.3-0.9-2.5-0.8-1.2 0.1-2.1 0.6-2 1zm22.6 19.6c-1 0.2-2.5 0.9-3.3 1.5-0.8 0.6-2.8 1-4.5 0.9-1.8-0.2-3.8 0.3-4.6 1.1-0.8 0.7-2.5 1.9-3.8 2.5-1.2 0.7-4.3 1.5-7 1.8-2.6 0.3-4.9 0.7-5.2 0.9-0.3 0.1-3.3-0.1-6.5-0.7-3.3-0.5-6.9-1.5-8-2.3-1.1-0.7-2.6-1-3.4-0.6-0.7 0.4-1.1 1.5-0.7 2.4 0.4 1.3 1 1.4 2.1 0.7 1.1-0.7 1.6-0.6 2 0.5 0.3 0.8 0.2 1.5-0.3 1.6-0.4 0-1.5 0.2-2.5 0.5-0.9 0.2-1.7-0.1-1.7-0.6 0-0.5-0.5-0.8-1-0.5-0.6 0.3-1.2-0.1-1.5-0.8-0.3-0.6-0.4-0.5-0.2 0.3 0.2 0.8 2.6 3.2 5.3 5.2 2.7 2.1 7.1 4.5 9.9 5.4 2.8 1 7.6 1.6 11 1.5 4.4-0.1 7.3-0.9 10.9-2.9 3.2-1.8 6.1-4.4 8.3-7.7 1.8-2.8 4.3-6.2 5.5-7.7 1.3-1.5 2-2.9 1.7-3.1-0.3-0.1-1.5-0.1-2.5 0.1z"/>
	</g>
</svg>