<svg xmlns="http://www.w3.org/2000/svg" version="1.1" xmlns:xlink="http://www.w3.org/1999/xlink" xmlns:svgjs="http://svgjs.com/svgjs" width="1440" height="560" preserveAspectRatio="none" viewBox="0 0 1440 560"><g mask="url(&quot;#SvgjsMask1353&quot;)" fill="none"><g mask="url(&quot;#SvgjsMask1354&quot;)"><path d="M682 242L726 286M682 110L726 154L726 198L726 242M726 66L726 110L770 154M726 -22L726 22L726 66L682 110L682 154L682 198L682 242L682 286L682 330" stroke="rgba(0, 0, 0, 1)" stroke-width="7.33"></path><path d="M671 330 a11 11 0 1 0 22 0 a11 11 0 1 0 -22 0zM715 286 a11 11 0 1 0 22 0 a11 11 0 1 0 -22 0zM715 242 a11 11 0 1 0 22 0 a11 11 0 1 0 -22 0zM759 154 a11 11 0 1 0 22 0 a11 11 0 1 0 -22 0z" fill="rgba(0, 0, 0, 1)"></path><path d="M682 -22L682 22L682 66L638 110L638 154L638 198L638 242L638 286L638 330" stroke="rgba(0, 0, 0, 1)" stroke-width="7.33"></path><path d="M627 330 a11 11 0 1 0 22 0 a11 11 0 1 0 -22 0z" fill="rgba(0, 0, 0, 1)"></path><path d="M770 -22L770 22L770 66" stroke="rgba(0, 0, 0, 1)" stroke-width="7.33"></path><path d="M759 66 a11 11 0 1 0 22 0 a11 11 0 1 0 -22 0z" fill="rgba(0, 0, 0, 1)"></path><path d="M638 -22L638 22L638 66L594 110L594 154L594 198L594 242L594 286" stroke="rgba(0, 0, 0, 1)" stroke-width="7.33"></path><path d="M583 286 a11 11 0 1 0 22 0 a11 11 0 1 0 -22 0z" fill="rgba(0, 0, 0, 1)"></path><path d="M858 330L814 374M814 242L858 286L902 330L902 374M814 286L814 330L770 374M814 -22L814 22L814 66L814 110L814 154L814 198L814 242L814 286L858 330L858 374" stroke="rgba(100, 65, 165, 1)" stroke-width="7.33"></path><path d="M847 374 a11 11 0 1 0 22 0 a11 11 0 1 0 -22 0zM803 374 a11 11 0 1 0 22 0 a11 11 0 1 0 -22 0zM891 374 a11 11 0 1 0 22 0 a11 11 0 1 0 -22 0zM759 374 a11 11 0 1 0 22 0 a11 11 0 1 0 -22 0z" fill="rgba(100, 65, 165, 1)"></path><path d="M550 154L506 198L506 242L550 286L550 330M594 -22L594 22L594 66L550 110L550 154L550 198L550 242" stroke="rgba(100, 65, 165, 1)" stroke-width="7.33"></path><path d="M539 242 a11 11 0 1 0 22 0 a11 11 0 1 0 -22 0zM539 330 a11 11 0 1 0 22 0 a11 11 0 1 0 -22 0z" fill="rgba(100, 65, 165, 1)"></path><path d="M858 -22L858 22L858 66L858 110L858 154" stroke="rgba(100, 65, 165, 1)" stroke-width="7.33"></path><path d="M847 154 a11 11 0 1 0 22 0 a11 11 0 1 0 -22 0z" fill="rgba(100, 65, 165, 1)"></path><path d="M550 -22L550 22L550 66L506 110" stroke="rgba(100, 65, 165, 1)" stroke-width="7.33"></path><path d="M495 110 a11 11 0 1 0 22 0 a11 11 0 1 0 -22 0z" fill="rgba(100, 65, 165, 1)"></path><path d="M902 -22L902 22L902 66L902 110" stroke="rgba(0, 0, 0, 1)" stroke-width="7.33"></path><path d="M891 110 a11 11 0 1 0 22 0 a11 11 0 1 0 -22 0z" fill="rgba(0, 0, 0, 1)"></path><path d="M506 -22L506 22L462 66L462 110L462 154" stroke="rgba(100, 65, 165, 1)" stroke-width="7.33"></path><path d="M451 154 a11 11 0 1 0 22 0 a11 11 0 1 0 -22 0z" fill="rgba(100, 65, 165, 1)"></path><path d="M946 -22L946 22L946 66L946 110L946 154" stroke="rgba(100, 65, 165, 1)" stroke-width="7.33"></path><path d="M935 154 a11 11 0 1 0 22 0 a11 11 0 1 0 -22 0z" fill="rgba(100, 65, 165, 1)"></path><path d="M462 -22L418 22L418 66L418 110L418 154L418 198" stroke="rgba(100, 65, 165, 1)" stroke-width="7.33"></path><path d="M407 198 a11 11 0 1 0 22 0 a11 11 0 1 0 -22 0z" fill="rgba(100, 65, 165, 1)"></path><path d="M990 110L1034 154L1034 198M990 66L1034 110M990 -22L990 22L990 66L990 110L990 154L990 198" stroke="rgba(0, 0, 0, 1)" stroke-width="7.33"></path><path d="M979 198 a11 11 0 1 0 22 0 a11 11 0 1 0 -22 0zM1023 198 a11 11 0 1 0 22 0 a11 11 0 1 0 -22 0zM1023 110 a11 11 0 1 0 22 0 a11 11 0 1 0 -22 0z" fill="rgba(0, 0, 0, 1)"></path><path d="M374 286L418 330L418 374M374 198L330 242L330 286L330 330L330 374M374 242L418 286M418 -22L374 22L374 66L374 110L374 154L374 198L374 242L374 286L374 330" stroke="rgba(100, 65, 165, 1)" stroke-width="7.33"></path><path d="M363 330 a11 11 0 1 0 22 0 a11 11 0 1 0 -22 0zM407 374 a11 11 0 1 0 22 0 a11 11 0 1 0 -22 0zM319 374 a11 11 0 1 0 22 0 a11 11 0 1 0 -22 0zM407 286 a11 11 0 1 0 22 0 a11 11 0 1 0 -22 0z" fill="rgba(100, 65, 165, 1)"></path><path d="M1078 66L1122 110M1034 22L1034 66M1034 -22L1034 22L1078 66L1078 110" stroke="rgba(0, 0, 0, 1)" stroke-width="7.33"></path><path d="M1067 110 a11 11 0 1 0 22 0 a11 11 0 1 0 -22 0zM1111 110 a11 11 0 1 0 22 0 a11 11 0 1 0 -22 0zM1023 66 a11 11 0 1 0 22 0 a11 11 0 1 0 -22 0z" fill="rgba(0, 0, 0, 1)"></path><path d="M330 22L286 66L286 110L286 154L286 198M374 -22L330 22L330 66L330 110" stroke="rgba(0, 0, 0, 1)" stroke-width="7.33"></path><path d="M319 110 a11 11 0 1 0 22 0 a11 11 0 1 0 -22 0zM275 198 a11 11 0 1 0 22 0 a11 11 0 1 0 -22 0z" fill="rgba(0, 0, 0, 1)"></path></g></g><defs><mask id="SvgjsMask1353"><rect width="1440" height="560" fill="#ffffff"></rect></mask><mask id="SvgjsMask1354"><rect width="1440" height="560" fill="white"></rect><path d="M676.5 330 a5.5 5.5 0 1 0 11 0 a5.5 5.5 0 1 0 -11 0zM720.5 286 a5.5 5.5 0 1 0 11 0 a5.5 5.5 0 1 0 -11 0zM720.5 242 a5.5 5.5 0 1 0 11 0 a5.5 5.5 0 1 0 -11 0zM764.5 154 a5.5 5.5 0 1 0 11 0 a5.5 5.5 0 1 0 -11 0z" fill="black"></path><path d="M632.5 330 a5.5 5.5 0 1 0 11 0 a5.5 5.5 0 1 0 -11 0z" fill="black"></path><path d="M764.5 66 a5.5 5.5 0 1 0 11 0 a5.5 5.5 0 1 0 -11 0z" fill="black"></path><path d="M588.5 286 a5.5 5.5 0 1 0 11 0 a5.5 5.5 0 1 0 -11 0z" fill="black"></path><path d="M852.5 374 a5.5 5.5 0 1 0 11 0 a5.5 5.5 0 1 0 -11 0zM808.5 374 a5.5 5.5 0 1 0 11 0 a5.5 5.5 0 1 0 -11 0zM896.5 374 a5.5 5.5 0 1 0 11 0 a5.5 5.5 0 1 0 -11 0zM764.5 374 a5.5 5.5 0 1 0 11 0 a5.5 5.5 0 1 0 -11 0z" fill="black"></path><path d="M544.5 242 a5.5 5.5 0 1 0 11 0 a5.5 5.5 0 1 0 -11 0zM544.5 330 a5.5 5.5 0 1 0 11 0 a5.5 5.5 0 1 0 -11 0z" fill="black"></path><path d="M852.5 154 a5.5 5.5 0 1 0 11 0 a5.5 5.5 0 1 0 -11 0z" fill="black"></path><path d="M500.5 110 a5.5 5.5 0 1 0 11 0 a5.5 5.5 0 1 0 -11 0z" fill="black"></path><path d="M896.5 110 a5.5 5.5 0 1 0 11 0 a5.5 5.5 0 1 0 -11 0z" fill="black"></path><path d="M456.5 154 a5.5 5.5 0 1 0 11 0 a5.5 5.5 0 1 0 -11 0z" fill="black"></path><path d="M940.5 154 a5.5 5.5 0 1 0 11 0 a5.5 5.5 0 1 0 -11 0z" fill="black"></path><path d="M412.5 198 a5.5 5.5 0 1 0 11 0 a5.5 5.5 0 1 0 -11 0z" fill="black"></path><path d="M984.5 198 a5.5 5.5 0 1 0 11 0 a5.5 5.5 0 1 0 -11 0zM1028.5 198 a5.5 5.5 0 1 0 11 0 a5.5 5.5 0 1 0 -11 0zM1028.5 110 a5.5 5.5 0 1 0 11 0 a5.5 5.5 0 1 0 -11 0z" fill="black"></path><path d="M368.5 330 a5.5 5.5 0 1 0 11 0 a5.5 5.5 0 1 0 -11 0zM412.5 374 a5.5 5.5 0 1 0 11 0 a5.5 5.5 0 1 0 -11 0zM324.5 374 a5.5 5.5 0 1 0 11 0 a5.5 5.5 0 1 0 -11 0zM412.5 286 a5.5 5.5 0 1 0 11 0 a5.5 5.5 0 1 0 -11 0z" fill="black"></path><path d="M1072.5 110 a5.5 5.5 0 1 0 11 0 a5.5 5.5 0 1 0 -11 0zM1116.5 110 a5.5 5.5 0 1 0 11 0 a5.5 5.5 0 1 0 -11 0zM1028.5 66 a5.5 5.5 0 1 0 11 0 a5.5 5.5 0 1 0 -11 0z" fill="black"></path><path d="M324.5 110 a5.5 5.5 0 1 0 11 0 a5.5 5.5 0 1 0 -11 0zM280.5 198 a5.5 5.5 0 1 0 11 0 a5.5 5.5 0 1 0 -11 0z" fill="black"></path></mask></defs></svg>