<svg xmlns="http://www.w3.org/2000/svg" version="1.1" xmlns:xlink="http://www.w3.org/1999/xlink" xmlns:svgjs="http://svgjs.dev/svgjs" viewBox="0 0 1422 800"><symbol id="SvgjsSymbol1021"><polygon points="0,18.75 37.5,0 75,18.75 37.5,37.5"></polygon></symbol><symbol id="SvgjsSymbol1022"><polygon points="0,18.75 37.5,37.5 37.5,75 0,56.25"></polygon></symbol><symbol id="SvgjsSymbol1023"><polygon points="37.5,37.5 75,18.75 75,56.25 37.5,75"></polygon></symbol><g shape-rendering="crispEdges"><g><use xlink:href="#SvgjsSymbol1021" x="75" y="112.5" fill="hsl(272, 99%, 54%)"></use><use xlink:href="#SvgjsSymbol1022" x="75" y="112.5" fill="#c956ff"></use><use xlink:href="#SvgjsSymbol1023" x="75" y="112.5" fill="#5700c9"></use></g><g><use xlink:href="#SvgjsSymbol1021" x="187.5" y="206.25" fill="hsl(272, 99%, 54%)"></use><use xlink:href="#SvgjsSymbol1022" x="187.5" y="206.25" fill="#c956ff"></use><use xlink:href="#SvgjsSymbol1023" x="187.5" y="206.25" fill="#5700c9"></use></g><g><use xlink:href="#SvgjsSymbol1021" x="187.5" y="356.25" fill="hsl(272, 99%, 54%)"></use><use xlink:href="#SvgjsSymbol1022" x="187.5" y="356.25" fill="#c956ff"></use><use xlink:href="#SvgjsSymbol1023" x="187.5" y="356.25" fill="#5700c9"></use></g><g><use xlink:href="#SvgjsSymbol1021" x="112.5" y="300" fill="hsl(272, 99%, 54%)"></use><use xlink:href="#SvgjsSymbol1022" x="112.5" y="300" fill="#c956ff"></use><use xlink:href="#SvgjsSymbol1023" x="112.5" y="300" fill="#5700c9"></use></g><g><use xlink:href="#SvgjsSymbol1021" x="56.25" y="318.75" fill="hsl(272, 99%, 54%)"></use><use xlink:href="#SvgjsSymbol1022" x="56.25" y="318.75" fill="#c956ff"></use><use xlink:href="#SvgjsSymbol1023" x="56.25" y="318.75" fill="#5700c9"></use></g><g><use xlink:href="#SvgjsSymbol1021" x="37.5" y="468.75" fill="hsl(272, 99%, 54%)"></use><use xlink:href="#SvgjsSymbol1022" x="37.5" y="468.75" fill="#c956ff"></use><use xlink:href="#SvgjsSymbol1023" x="37.5" y="468.75" fill="#5700c9"></use></g><g><use xlink:href="#SvgjsSymbol1021" x="225" y="525" fill="hsl(272, 99%, 54%)"></use><use xlink:href="#SvgjsSymbol1022" x="225" y="525" fill="#c956ff"></use><use xlink:href="#SvgjsSymbol1023" x="225" y="525" fill="#5700c9"></use></g><g><use xlink:href="#SvgjsSymbol1021" x="506.25" y="281.25" fill="hsl(272, 99%, 54%)"></use><use xlink:href="#SvgjsSymbol1022" x="506.25" y="281.25" fill="#c956ff"></use><use xlink:href="#SvgjsSymbol1023" x="506.25" y="281.25" fill="#5700c9"></use></g><g><use xlink:href="#SvgjsSymbol1021" x="787.5" y="375" fill="hsl(272, 99%, 54%)"></use><use xlink:href="#SvgjsSymbol1022" x="787.5" y="375" fill="#c956ff"></use><use xlink:href="#SvgjsSymbol1023" x="787.5" y="375" fill="#5700c9"></use></g><g><use xlink:href="#SvgjsSymbol1021" x="768.75" y="431.25" fill="hsl(272, 99%, 54%)"></use><use xlink:href="#SvgjsSymbol1022" x="768.75" y="431.25" fill="#c956ff"></use><use xlink:href="#SvgjsSymbol1023" x="768.75" y="431.25" fill="#5700c9"></use></g><g><use xlink:href="#SvgjsSymbol1021" x="637.5" y="431.25" fill="hsl(272, 99%, 54%)"></use><use xlink:href="#SvgjsSymbol1022" x="637.5" y="431.25" fill="#c956ff"></use><use xlink:href="#SvgjsSymbol1023" x="637.5" y="431.25" fill="#5700c9"></use></g><g><use xlink:href="#SvgjsSymbol1021" x="825" y="187.5" fill="hsl(272, 99%, 54%)"></use><use xlink:href="#SvgjsSymbol1022" x="825" y="187.5" fill="#c956ff"></use><use xlink:href="#SvgjsSymbol1023" x="825" y="187.5" fill="#5700c9"></use></g><g><use xlink:href="#SvgjsSymbol1021" x="750" y="131.25" fill="hsl(272, 99%, 54%)"></use><use xlink:href="#SvgjsSymbol1022" x="750" y="131.25" fill="#c956ff"></use><use xlink:href="#SvgjsSymbol1023" x="750" y="131.25" fill="#5700c9"></use></g><g><use xlink:href="#SvgjsSymbol1021" x="675" y="75" fill="hsl(272, 99%, 54%)"></use><use xlink:href="#SvgjsSymbol1022" x="675" y="75" fill="#c956ff"></use><use xlink:href="#SvgjsSymbol1023" x="675" y="75" fill="#5700c9"></use></g><g><use xlink:href="#SvgjsSymbol1021" x="1181.25" y="150" fill="hsl(272, 99%, 54%)"></use><use xlink:href="#SvgjsSymbol1022" x="1181.25" y="150" fill="#c956ff"></use><use xlink:href="#SvgjsSymbol1023" x="1181.25" y="150" fill="#5700c9"></use></g><g><use xlink:href="#SvgjsSymbol1021" x="1256.25" y="243.75" fill="hsl(272, 99%, 54%)"></use><use xlink:href="#SvgjsSymbol1022" x="1256.25" y="243.75" fill="#c956ff"></use><use xlink:href="#SvgjsSymbol1023" x="1256.25" y="243.75" fill="#5700c9"></use></g><g><use xlink:href="#SvgjsSymbol1021" x="1237.5" y="375" fill="hsl(272, 99%, 54%)"></use><use xlink:href="#SvgjsSymbol1022" x="1237.5" y="375" fill="#c956ff"></use><use xlink:href="#SvgjsSymbol1023" x="1237.5" y="375" fill="#5700c9"></use></g><g><use xlink:href="#SvgjsSymbol1021" x="993.75" y="375" fill="hsl(272, 99%, 54%)"></use><use xlink:href="#SvgjsSymbol1022" x="993.75" y="375" fill="#c956ff"></use><use xlink:href="#SvgjsSymbol1023" x="993.75" y="375" fill="#5700c9"></use></g><g><use xlink:href="#SvgjsSymbol1021" x="937.5" y="337.5" fill="hsl(272, 99%, 54%)"></use><use xlink:href="#SvgjsSymbol1022" x="937.5" y="337.5" fill="#c956ff"></use><use xlink:href="#SvgjsSymbol1023" x="937.5" y="337.5" fill="#5700c9"></use></g><g><use xlink:href="#SvgjsSymbol1021" x="937.5" y="262.5" fill="hsl(272, 99%, 54%)"></use><use xlink:href="#SvgjsSymbol1022" x="937.5" y="262.5" fill="#c956ff"></use><use xlink:href="#SvgjsSymbol1023" x="937.5" y="262.5" fill="#5700c9"></use></g><g><use xlink:href="#SvgjsSymbol1021" x="1143.75" y="281.25" fill="hsl(272, 99%, 54%)"></use><use xlink:href="#SvgjsSymbol1022" x="1143.75" y="281.25" fill="#c956ff"></use><use xlink:href="#SvgjsSymbol1023" x="1143.75" y="281.25" fill="#5700c9"></use></g><g><use xlink:href="#SvgjsSymbol1021" x="1125" y="412.5" fill="hsl(272, 99%, 54%)"></use><use xlink:href="#SvgjsSymbol1022" x="1125" y="412.5" fill="#c956ff"></use><use xlink:href="#SvgjsSymbol1023" x="1125" y="412.5" fill="#5700c9"></use></g><g><use xlink:href="#SvgjsSymbol1021" x="1125" y="450" fill="hsl(272, 99%, 54%)"></use><use xlink:href="#SvgjsSymbol1022" x="1125" y="450" fill="#c956ff"></use><use xlink:href="#SvgjsSymbol1023" x="1125" y="450" fill="#5700c9"></use></g><g><use xlink:href="#SvgjsSymbol1021" x="1331.25" y="525" fill="hsl(272, 99%, 54%)"></use><use xlink:href="#SvgjsSymbol1022" x="1331.25" y="525" fill="#c956ff"></use><use xlink:href="#SvgjsSymbol1023" x="1331.25" y="525" fill="#5700c9"></use></g><g><use xlink:href="#SvgjsSymbol1021" x="1331.25" y="506.25" fill="hsl(272, 99%, 54%)"></use><use xlink:href="#SvgjsSymbol1022" x="1331.25" y="506.25" fill="#c956ff"></use><use xlink:href="#SvgjsSymbol1023" x="1331.25" y="506.25" fill="#5700c9"></use></g><g><use xlink:href="#SvgjsSymbol1021" x="1087.5" y="281.25" fill="hsl(272, 99%, 54%)"></use><use xlink:href="#SvgjsSymbol1022" x="1087.5" y="281.25" fill="#c956ff"></use><use xlink:href="#SvgjsSymbol1023" x="1087.5" y="281.25" fill="#5700c9"></use></g><g><use xlink:href="#SvgjsSymbol1021" x="562.5" y="187.5" fill="hsl(272, 99%, 54%)"></use><use xlink:href="#SvgjsSymbol1022" x="562.5" y="187.5" fill="#c956ff"></use><use xlink:href="#SvgjsSymbol1023" x="562.5" y="187.5" fill="#5700c9"></use></g><g><use xlink:href="#SvgjsSymbol1021" x="562.5" y="243.75" fill="hsl(272, 99%, 54%)"></use><use xlink:href="#SvgjsSymbol1022" x="562.5" y="243.75" fill="#c956ff"></use><use xlink:href="#SvgjsSymbol1023" x="562.5" y="243.75" fill="#5700c9"></use></g><g><use xlink:href="#SvgjsSymbol1021" x="656.25" y="393.75" fill="hsl(272, 99%, 54%)"></use><use xlink:href="#SvgjsSymbol1022" x="656.25" y="393.75" fill="#c956ff"></use><use xlink:href="#SvgjsSymbol1023" x="656.25" y="393.75" fill="#5700c9"></use></g><g><use xlink:href="#SvgjsSymbol1021" x="750" y="300" fill="hsl(272, 99%, 54%)"></use><use xlink:href="#SvgjsSymbol1022" x="750" y="300" fill="#c956ff"></use><use xlink:href="#SvgjsSymbol1023" x="750" y="300" fill="#5700c9"></use></g></g><g></g></svg>