<svg xmlns="http://www.w3.org/2000/svg" version="1.1" xmlns:xlink="http://www.w3.org/1999/xlink" xmlns:svgjs="http://svgjs.dev/svgjs" viewBox="0 0 1422 800"><symbol id="SvgjsSymbol1024"><polygon points="0,18.75 37.5,0 75,18.75 37.5,37.5"></polygon></symbol><symbol id="SvgjsSymbol1025"><polygon points="0,18.75 37.5,37.5 37.5,75 0,56.25"></polygon></symbol><symbol id="SvgjsSymbol1026"><polygon points="37.5,37.5 75,18.75 75,56.25 37.5,75"></polygon></symbol><g shape-rendering="crispEdges"><g><use xlink:href="#SvgjsSymbol1024" x="56.25" y="37.5" fill="hsl(0, 0%, 100%)"></use><use xlink:href="#SvgjsSymbol1025" x="56.25" y="37.5" fill="#ffffff"></use><use xlink:href="#SvgjsSymbol1026" x="56.25" y="37.5" fill="#cccccc"></use></g><g><use xlink:href="#SvgjsSymbol1024" x="206.25" y="262.5" fill="hsl(0, 0%, 100%)"></use><use xlink:href="#SvgjsSymbol1025" x="206.25" y="262.5" fill="#ffffff"></use><use xlink:href="#SvgjsSymbol1026" x="206.25" y="262.5" fill="#cccccc"></use></g><g><use xlink:href="#SvgjsSymbol1024" x="93.75" y="281.25" fill="hsl(0, 0%, 100%)"></use><use xlink:href="#SvgjsSymbol1025" x="93.75" y="281.25" fill="#ffffff"></use><use xlink:href="#SvgjsSymbol1026" x="93.75" y="281.25" fill="#cccccc"></use></g><g><use xlink:href="#SvgjsSymbol1024" x="225" y="131.25" fill="hsl(0, 0%, 100%)"></use><use xlink:href="#SvgjsSymbol1025" x="225" y="131.25" fill="#ffffff"></use><use xlink:href="#SvgjsSymbol1026" x="225" y="131.25" fill="#cccccc"></use></g><g><use xlink:href="#SvgjsSymbol1024" x="525" y="75" fill="hsl(0, 0%, 100%)"></use><use xlink:href="#SvgjsSymbol1025" x="525" y="75" fill="#ffffff"></use><use xlink:href="#SvgjsSymbol1026" x="525" y="75" fill="#cccccc"></use></g><g><use xlink:href="#SvgjsSymbol1024" x="768.75" y="262.5" fill="hsl(0, 0%, 100%)"></use><use xlink:href="#SvgjsSymbol1025" x="768.75" y="262.5" fill="#ffffff"></use><use xlink:href="#SvgjsSymbol1026" x="768.75" y="262.5" fill="#cccccc"></use></g><g><use xlink:href="#SvgjsSymbol1024" x="656.25" y="356.25" fill="hsl(0, 0%, 100%)"></use><use xlink:href="#SvgjsSymbol1025" x="656.25" y="356.25" fill="#ffffff"></use><use xlink:href="#SvgjsSymbol1026" x="656.25" y="356.25" fill="#cccccc"></use></g><g><use xlink:href="#SvgjsSymbol1024" x="112.5" y="543.75" fill="hsl(0, 0%, 100%)"></use><use xlink:href="#SvgjsSymbol1025" x="112.5" y="543.75" fill="#ffffff"></use><use xlink:href="#SvgjsSymbol1026" x="112.5" y="543.75" fill="#cccccc"></use></g><g><use xlink:href="#SvgjsSymbol1024" x="562.5" y="262.5" fill="hsl(0, 0%, 100%)"></use><use xlink:href="#SvgjsSymbol1025" x="562.5" y="262.5" fill="#ffffff"></use><use xlink:href="#SvgjsSymbol1026" x="562.5" y="262.5" fill="#cccccc"></use></g><g><use xlink:href="#SvgjsSymbol1024" x="337.5" y="656.25" fill="hsl(0, 0%, 100%)"></use><use xlink:href="#SvgjsSymbol1025" x="337.5" y="656.25" fill="#ffffff"></use><use xlink:href="#SvgjsSymbol1026" x="337.5" y="656.25" fill="#cccccc"></use></g><g><use xlink:href="#SvgjsSymbol1024" x="225" y="431.25" fill="hsl(0, 0%, 100%)"></use><use xlink:href="#SvgjsSymbol1025" x="225" y="431.25" fill="#ffffff"></use><use xlink:href="#SvgjsSymbol1026" x="225" y="431.25" fill="#cccccc"></use></g><g><use xlink:href="#SvgjsSymbol1024" x="56.25" y="431.25" fill="hsl(0, 0%, 100%)"></use><use xlink:href="#SvgjsSymbol1025" x="56.25" y="431.25" fill="#ffffff"></use><use xlink:href="#SvgjsSymbol1026" x="56.25" y="431.25" fill="#cccccc"></use></g><g><use xlink:href="#SvgjsSymbol1024" x="75" y="712.5" fill="hsl(0, 0%, 100%)"></use><use xlink:href="#SvgjsSymbol1025" x="75" y="712.5" fill="#ffffff"></use><use xlink:href="#SvgjsSymbol1026" x="75" y="712.5" fill="#cccccc"></use></g><g><use xlink:href="#SvgjsSymbol1024" x="675" y="600" fill="hsl(0, 0%, 100%)"></use><use xlink:href="#SvgjsSymbol1025" x="675" y="600" fill="#ffffff"></use><use xlink:href="#SvgjsSymbol1026" x="675" y="600" fill="#cccccc"></use></g><g><use xlink:href="#SvgjsSymbol1024" x="506.25" y="450" fill="hsl(0, 0%, 100%)"></use><use xlink:href="#SvgjsSymbol1025" x="506.25" y="450" fill="#ffffff"></use><use xlink:href="#SvgjsSymbol1026" x="506.25" y="450" fill="#cccccc"></use></g><g><use xlink:href="#SvgjsSymbol1024" x="937.5" y="562.5" fill="hsl(0, 0%, 100%)"></use><use xlink:href="#SvgjsSymbol1025" x="937.5" y="562.5" fill="#ffffff"></use><use xlink:href="#SvgjsSymbol1026" x="937.5" y="562.5" fill="#cccccc"></use></g><g><use xlink:href="#SvgjsSymbol1024" x="956.25" y="225" fill="hsl(0, 0%, 100%)"></use><use xlink:href="#SvgjsSymbol1025" x="956.25" y="225" fill="#ffffff"></use><use xlink:href="#SvgjsSymbol1026" x="956.25" y="225" fill="#cccccc"></use></g><g><use xlink:href="#SvgjsSymbol1024" x="900" y="393.75" fill="hsl(0, 0%, 100%)"></use><use xlink:href="#SvgjsSymbol1025" x="900" y="393.75" fill="#ffffff"></use><use xlink:href="#SvgjsSymbol1026" x="900" y="393.75" fill="#cccccc"></use></g><g><use xlink:href="#SvgjsSymbol1024" x="1125" y="37.5" fill="hsl(0, 0%, 100%)"></use><use xlink:href="#SvgjsSymbol1025" x="1125" y="37.5" fill="#ffffff"></use><use xlink:href="#SvgjsSymbol1026" x="1125" y="37.5" fill="#cccccc"></use></g><g><use xlink:href="#SvgjsSymbol1024" x="1200" y="93.75" fill="hsl(0, 0%, 100%)"></use><use xlink:href="#SvgjsSymbol1025" x="1200" y="93.75" fill="#ffffff"></use><use xlink:href="#SvgjsSymbol1026" x="1200" y="93.75" fill="#cccccc"></use></g><g><use xlink:href="#SvgjsSymbol1024" x="1256.25" y="187.5" fill="hsl(0, 0%, 100%)"></use><use xlink:href="#SvgjsSymbol1025" x="1256.25" y="187.5" fill="#ffffff"></use><use xlink:href="#SvgjsSymbol1026" x="1256.25" y="187.5" fill="#cccccc"></use></g><g><use xlink:href="#SvgjsSymbol1024" x="1312.5" y="300" fill="hsl(0, 0%, 100%)"></use><use xlink:href="#SvgjsSymbol1025" x="1312.5" y="300" fill="#ffffff"></use><use xlink:href="#SvgjsSymbol1026" x="1312.5" y="300" fill="#cccccc"></use></g><g><use xlink:href="#SvgjsSymbol1024" x="1162.5" y="281.25" fill="hsl(0, 0%, 100%)"></use><use xlink:href="#SvgjsSymbol1025" x="1162.5" y="281.25" fill="#ffffff"></use><use xlink:href="#SvgjsSymbol1026" x="1162.5" y="281.25" fill="#cccccc"></use></g><g><use xlink:href="#SvgjsSymbol1024" x="1125" y="168.75" fill="hsl(0, 0%, 100%)"></use><use xlink:href="#SvgjsSymbol1025" x="1125" y="168.75" fill="#ffffff"></use><use xlink:href="#SvgjsSymbol1026" x="1125" y="168.75" fill="#cccccc"></use></g><g><use xlink:href="#SvgjsSymbol1024" x="1312.5" y="56.25" fill="hsl(0, 0%, 100%)"></use><use xlink:href="#SvgjsSymbol1025" x="1312.5" y="56.25" fill="#ffffff"></use><use xlink:href="#SvgjsSymbol1026" x="1312.5" y="56.25" fill="#cccccc"></use></g><g><use xlink:href="#SvgjsSymbol1024" x="750" y="75" fill="hsl(0, 0%, 100%)"></use><use xlink:href="#SvgjsSymbol1025" x="750" y="75" fill="#ffffff"></use><use xlink:href="#SvgjsSymbol1026" x="750" y="75" fill="#cccccc"></use></g></g><g></g></svg>