<svg xmlns="http://www.w3.org/2000/svg" viewBox="0 0 750 500"><g id="freepik--speech-bubble--inject-2"><path d="M489.35,73.59H305.67A15.36,15.36,0,0,0,290.35,89v37.43L267,146.57l23.4-2.19v16.93a15.36,15.36,0,0,0,15.32,15.4H489.35a15.36,15.36,0,0,0,15.32-15.4V89A15.36,15.36,0,0,0,489.35,73.59Z" style="fill:#263238"></path><path d="M489.35,177.21H305.67a15.88,15.88,0,0,1-15.82-15.9V144.93L267,147.07a.5.5,0,0,1-.37-.88l23.22-20V89a15.88,15.88,0,0,1,15.82-15.9H489.35A15.88,15.88,0,0,1,505.17,89v72.33A15.88,15.88,0,0,1,489.35,177.21Zm-199-33.33a.51.51,0,0,1,.34.14.48.48,0,0,1,.16.36v16.93a14.88,14.88,0,0,0,14.82,14.9H489.35a14.88,14.88,0,0,0,14.82-14.9V89a14.88,14.88,0,0,0-14.82-14.9H305.67A14.88,14.88,0,0,0,290.85,89v37.43a.49.49,0,0,1-.17.38l-22.21,19.14,21.83-2Z" style="fill:#263238"></path><path d="M491.51,69.27H307.83a15.36,15.36,0,0,0-15.32,15.4v37.42l-23.4,20.16,23.4-2.18V157a15.36,15.36,0,0,0,15.32,15.4H491.51A15.36,15.36,0,0,0,506.83,157V84.67A15.36,15.36,0,0,0,491.51,69.27Z" style="fill:#fff"></path><path d="M491.51,172.89H307.83A15.88,15.88,0,0,1,292,157V140.61l-22.85,2.14a.5.5,0,0,1-.37-.88l23.22-20V84.67a15.88,15.88,0,0,1,15.82-15.9H491.51a15.87,15.87,0,0,1,15.82,15.9V157A15.88,15.88,0,0,1,491.51,172.89Zm-199-33.32a.5.5,0,0,1,.34.13.49.49,0,0,1,.16.37V157a14.88,14.88,0,0,0,14.82,14.9H491.51A14.88,14.88,0,0,0,506.33,157V84.67a14.88,14.88,0,0,0-14.82-14.9H307.83A14.88,14.88,0,0,0,293,84.67v37.42a.49.49,0,0,1-.17.38l-22.21,19.14,21.83-2Z" style="fill:#263238"></path></g><g id="freepik--Charts--inject-2"><rect x="317.83" y="98.06" width="9.61" height="62.76" style="fill:#7E57C2"></rect><path d="M327.44,161.32h-9.61a.5.5,0,0,1-.5-.5V98.06a.5.5,0,0,1,.5-.5h9.61a.5.5,0,0,1,.5.5v62.76A.51.51,0,0,1,327.44,161.32Zm-9.11-1h8.61V98.56h-8.61Z" style="fill:#263238"></path><rect x="332.92" y="126.07" width="9.61" height="34.74" style="fill:#7E57C2"></rect><path d="M342.53,161.32h-9.61a.51.51,0,0,1-.5-.5V126.07a.51.51,0,0,1,.5-.5h9.61a.5.5,0,0,1,.5.5v34.75A.5.5,0,0,1,342.53,161.32Zm-9.11-1H342V126.57h-8.61Z" style="fill:#263238"></path><rect x="348.02" y="112.07" width="9.61" height="48.75" style="fill:#7E57C2"></rect><path d="M357.63,161.32H348a.5.5,0,0,1-.5-.5V112.07a.5.5,0,0,1,.5-.5h9.61a.5.5,0,0,1,.5.5v48.75A.51.51,0,0,1,357.63,161.32Zm-9.11-1h8.61V112.57h-8.61Z" style="fill:#263238"></path><rect x="363.11" y="140.08" width="9.61" height="20.73" style="fill:#7E57C2"></rect><path d="M372.72,161.32h-9.61a.51.51,0,0,1-.5-.5V140.08a.51.51,0,0,1,.5-.5h9.61a.5.5,0,0,1,.5.5v20.74A.5.5,0,0,1,372.72,161.32Zm-9.11-1h8.61V140.58h-8.61Z" style="fill:#263238"></path><path d="M366.83,119a1.51,1.51,0,0,1-1.31-.76l-13-22.85-14,7.66a1.48,1.48,0,0,1-1.75-.22L320.05,87.07a1.5,1.5,0,1,1,2.05-2.19l16,15,14.32-7.86a1.51,1.51,0,0,1,2,.58l13.71,24.14a1.5,1.5,0,0,1-.56,2A1.54,1.54,0,0,1,366.83,119Z" style="fill:#263238"></path><polygon points="361.97 118.66 370.23 123.5 370.3 113.93 361.97 118.66" style="fill:#263238"></polygon><rect x="427.75" y="113.53" width="9.61" height="47.29" style="fill:#7E57C2"></rect><path d="M437.35,161.32h-9.6a.5.5,0,0,1-.5-.5V113.53a.5.5,0,0,1,.5-.5h9.6a.5.5,0,0,1,.5.5v47.29A.5.5,0,0,1,437.35,161.32Zm-9.1-1h8.6V114h-8.6Z" style="fill:#263238"></path><rect x="442.84" y="109.37" width="9.61" height="51.45" style="fill:#7E57C2"></rect><path d="M452.45,161.32h-9.61a.5.5,0,0,1-.5-.5V109.37a.5.5,0,0,1,.5-.5h9.61a.5.5,0,0,1,.5.5v51.45A.51.51,0,0,1,452.45,161.32Zm-9.11-1H452V109.87h-8.61Z" style="fill:#263238"></path><rect x="457.93" y="99.38" width="9.61" height="61.44" style="fill:#7E57C2"></rect><path d="M467.54,161.32h-9.61a.51.51,0,0,1-.5-.5V99.38a.5.5,0,0,1,.5-.5h9.61a.5.5,0,0,1,.5.5v61.44A.5.5,0,0,1,467.54,161.32Zm-9.11-1H467V99.88h-8.61Z" style="fill:#263238"></path><rect x="473.03" y="96.05" width="9.61" height="64.77" style="fill:#7E57C2"></rect><path d="M482.64,161.32H473a.5.5,0,0,1-.5-.5V96.05a.5.5,0,0,1,.5-.5h9.61a.5.5,0,0,1,.5.5v64.77A.51.51,0,0,1,482.64,161.32Zm-9.11-1h8.61V96.55h-8.61Z" style="fill:#263238"></path><path d="M433,105.14a1.5,1.5,0,0,1-.18-3l15.44-1.93,24.95-15.84a1.5,1.5,0,0,1,1.61,2.53l-25.24,16a1.4,1.4,0,0,1-.62.22l-15.77,2Z" style="fill:#263238"></path><polygon points="475.36 90.43 479.79 81.95 470.22 82.35 475.36 90.43" style="fill:#263238"></polygon><polygon points="421.79 135.26 391.3 119.33 391.3 128.03 379.6 128.03 379.6 142.49 391.3 142.49 391.3 151.19 421.79 135.26" style="fill:#263238"></polygon></g><g id="freepik--character-2--inject-2"><path d="M516.72,292.47l-5.94,8.31s-8.9,47.49-10.09,59.07-1.19,72.72-1.19,72.72h54s-11.28-64.12-10.09-69.76,5.34-65.3,5.34-65.3L547,293.36Z" style="fill:#bababa"></path><path d="M553.52,433.07h-54a.5.5,0,0,1-.5-.5c0-.61,0-61.31,1.19-72.77s10-58.64,10.1-59.11a.44.44,0,0,1,.08-.2l5.94-8.31a.54.54,0,0,1,.42-.21l30.28.89a.48.48,0,0,1,.44.3l1.78,4.16a.45.45,0,0,1,0,.23c-.17,2.44-4.17,59.76-5.35,65.37s10,68.92,10.1,69.56a.5.5,0,0,1-.5.59Zm-53.52-1h52.93c-1.2-6.86-11.14-63.91-10-69.36s5.12-62.09,5.33-65.11l-1.61-3.75L517,293l-5.72,8c-.48,2.55-8.92,47.76-10.07,58.92C500.07,370.76,500,426.19,500,432.07Z" style="fill:#263238"></path><path d="M543.43,362.81c.4-1.91,1.15-10,2-19.91-7.06,5-16.82,10.62-24.51,10.12-8.76-.57-14.46-6.89-17.43-11.34-1.32,7.81-2.39,14.65-2.75,18.17-1.19,11.57-1.19,72.72-1.19,72.72h54S542.24,368.45,543.43,362.81Z" style="fill:#fff"></path><path d="M553.52,433.07h-54a.5.5,0,0,1-.5-.5c0-.61,0-61.31,1.19-72.77.32-3.16,1.25-9.28,2.76-18.2a.49.49,0,0,1,.39-.41.5.5,0,0,1,.52.21c3.18,4.77,8.71,10.58,17,11.12,7.58.5,17.35-5.18,24.19-10a.52.52,0,0,1,.54,0,.5.5,0,0,1,.25.48c-.94,11.55-1.6,18.27-2,20-1.15,5.48,10,68.92,10.1,69.56a.5.5,0,0,1-.5.59Zm-53.52-1h52.93c-1.2-6.86-11.14-63.91-10-69.36h0c.34-1.61,1-7.93,1.86-18.79-6.92,4.79-16.39,10.09-24,9.6-8.15-.53-13.72-5.81-17.11-10.54-1.38,8.24-2.24,13.93-2.55,16.92C500.07,370.76,500,426.19,500,432.07Z" style="fill:#263238"></path><path d="M516.72,292.47s-13.06,61.74-13.66,76-.29,64.12-.29,64.12H471l.89-32.06-14.85,18.11L436,397.25s21.37-43.34,23.75-49.28,8-26.71,9.2-29.68-1.49-4.45,3.56-6.23S516.72,292.47,516.72,292.47Z" style="fill:#7E57C2"></path><path d="M502.77,433.07H471a.51.51,0,0,1-.5-.52l.86-30.59-13.92,17a.54.54,0,0,1-.36.18.46.46,0,0,1-.38-.15L435.62,397.6a.5.5,0,0,1-.09-.57c.22-.44,21.39-43.39,23.73-49.24,1.38-3.46,3.93-12.13,6-19.1,1.47-5,2.73-9.33,3.23-10.58a5.22,5.22,0,0,0,.3-2.36c-.08-1.78.12-2.95,3.56-4.16,5-1.76,43.8-19.4,44.19-19.58a.51.51,0,0,1,.7.56c-.13.62-13.06,61.86-13.65,75.9s-.3,63.6-.29,64.1a.51.51,0,0,1-.15.35A.47.47,0,0,1,502.77,433.07Zm-31.25-1h30.74c0-5.28-.25-50.31.3-63.64.55-13.14,11.8-67.18,13.46-75.1-6,2.73-38.72,17.56-43.36,19.2-3,1.06-3,1.81-2.9,3.18a6.23,6.23,0,0,1-.37,2.77c-.48,1.2-1.74,5.51-3.2,10.49-2.05,7-4.6,15.69-6,19.19-2.25,5.62-21.65,45-23.61,49L457,417.87l14.49-17.68a.51.51,0,0,1,.56-.15.52.52,0,0,1,.33.49Z" style="fill:#263238"></path><path d="M513.75,292.76s-3-1.48-5.94,5.05-8.9,23.45-11.87,28.5.59,5,2.37,3.85,5.35-7.71,6.53-6.82,4.16,6.82,4.16,6.82l7.42-34.72A5.26,5.26,0,0,0,513.75,292.76Z" style="fill:#7E57C2"></path><path d="M496.29,331.31a2.07,2.07,0,0,1-1.45-.5c-.91-.86-.68-2.46.67-4.76,1.78-3,4.71-10.57,7.31-17.22,1.73-4.45,3.36-8.64,4.54-11.23,1.32-2.92,2.84-4.7,4.49-5.28a2.83,2.83,0,0,1,2.08,0,5.72,5.72,0,0,1,3,2.94.51.51,0,0,1,0,.3l-7.42,34.73a.51.51,0,0,1-.43.39.49.49,0,0,1-.51-.27c-1.13-2.26-3.21-6.06-4-6.65-.48,0-2.07,2.16-3,3.44a17,17,0,0,1-2.93,3.4A4.37,4.37,0,0,1,496.29,331.31ZM513,293.12a2.44,2.44,0,0,0-.83.16c-.94.35-2.38,1.46-3.87,4.74-1.17,2.56-2.8,6.74-4.52,11.17-2.73,7-5.56,14.28-7.38,17.37-1,1.74-1.34,3.05-.84,3.52s1.63.25,2.51-.33a17.45,17.45,0,0,0,2.68-3.17c1.7-2.28,2.8-3.68,3.72-3.82a1,1,0,0,1,.7.18c.93.69,2.7,3.9,3.66,5.75l7.1-33.19a4.62,4.62,0,0,0-2.31-2.26l-.06,0A1.48,1.48,0,0,0,513,293.12Z" style="fill:#263238"></path><path d="M476.94,340.76h-.09a.5.5,0,0,1-.4-.58c.72-3.75,1.19-6.24,1.19-6.24a.5.5,0,1,1,1,.19s-.47,2.49-1.19,6.23A.49.49,0,0,1,476.94,340.76Z" style="fill:#263238"></path><path d="M470.11,397.15a.49.49,0,0,1-.49-.46c-.05-.71-1.18-17.37.3-23.6.9-3.75,3.51-17.19,5.55-27.81a.5.5,0,0,1,.59-.4.51.51,0,0,1,.4.59c-2,10.62-4.67,24.08-5.56,27.85-1.45,6.09-.3,23.13-.29,23.3a.5.5,0,0,1-.46.53Z" style="fill:#263238"></path><path d="M454.08,395.54s-1.65-4-4-4-14.49,2.2-16.88,4-8.07,15.41-8.07,18,6.61,13.57,9.91,15.22,13.94-.19,13.94-.19,5.5-4.58,6.05-5.13,6.05-13.21,4.77-19.07A15.16,15.16,0,0,0,454.08,395.54Z" style="fill:#fff"></path><path d="M439.71,429.92a12.23,12.23,0,0,1-4.93-.73c-3.31-1.66-10.18-12.8-10.18-15.67,0-2.6,5.62-16.34,8.27-18.37S447.68,391,450.05,391s4.1,3.45,4.43,4.2a15.57,15.57,0,0,1,5.77,9c1.34,6.13-4.31,18.95-4.9,19.53s-5.86,5-6.08,5.17a.53.53,0,0,1-.24.11A64.82,64.82,0,0,1,439.71,429.92ZM450.05,392c-2.58,0-14.36,2.23-16.57,3.93s-7.88,15-7.88,17.58c0,2.28,6.48,13.2,9.63,14.77,2.93,1.46,12.28,0,13.5-.21,1.6-1.33,5.49-4.59,5.91-5,.53-.67,5.89-12.9,4.64-18.62A14.72,14.72,0,0,0,453.8,396a.58.58,0,0,1-.18-.23C453.19,394.7,451.72,392,450.05,392ZM449,428.55h0Z" style="fill:#263238"></path><path d="M519.66,307.47l-5.35-12.84-2.14-4.28h-5.35c-5.35,0-8.2,1.07-10-2.13S492.56,265,492.56,265a20.57,20.57,0,0,1-4.28-2.14,3.15,3.15,0,0,1,1.43-5.71c3.21-.71,6.42-6.06,7.49-10.7s-.36-9.27,4.63-16.4A44.87,44.87,0,0,1,514,218.68s12.12-6.42,23.89-.36A43.58,43.58,0,0,1,561,255.41c.71,17.83-13.2,29.24-13.2,29.24l-2.91,25" style="fill:#bababa"></path><path d="M544.92,310.18h-.06a.5.5,0,0,1-.44-.56l2.92-25a.48.48,0,0,1,.18-.33c.13-.11,13.7-11.47,13-28.83a43.06,43.06,0,0,0-22.91-36.67c-11.39-5.86-23.31.3-23.43.36a44.83,44.83,0,0,0-12,11.25c-3.49,5-3.76,8.61-4,12.12a26.55,26.55,0,0,1-.53,4.11c-1.09,4.73-4.41,10.31-7.87,11.08a2.84,2.84,0,0,0-2.33,2.2,2.54,2.54,0,0,0,1.08,2.6,20.14,20.14,0,0,0,4.16,2.08.51.51,0,0,1,.34.41c0,.2,2.5,19.91,4.22,23,1.24,2.23,3.05,2.15,6.34,2,.94,0,2-.1,3.2-.1h5.35a.5.5,0,0,1,.45.28l2.14,4.28,5.36,12.87a.49.49,0,0,1-.27.65.5.5,0,0,1-.65-.26l-5.35-12.84-2-4h-5c-1.16,0-2.22.06-3.16.1-3.44.17-5.72.28-7.26-2.49-1.71-3.08-4-20.43-4.3-23.06a21,21,0,0,1-4.1-2.09,3.54,3.54,0,0,1-1.51-3.61,3.82,3.82,0,0,1,3.11-3c3-.66,6.08-5.87,7.11-10.32a25.51,25.51,0,0,0,.5-4,22.25,22.25,0,0,1,4.21-12.62,45.78,45.78,0,0,1,12.28-11.55c.14-.08,12.52-6.49,24.38-.37a44,44,0,0,1,23.45,37.51c.67,16.84-11.68,28.16-13.22,29.51l-2.9,24.84A.49.49,0,0,1,544.92,310.18Z" style="fill:#263238"></path><polygon points="512.17 290.36 527.7 287.36 515.25 297.36 512.17 290.36" style="fill:#263238"></polygon><path d="M515.25,297.86h-.12a.48.48,0,0,1-.33-.29l-3.09-7a.51.51,0,0,1,.37-.7l15.53-3a.49.49,0,0,1,.54.28.5.5,0,0,1-.14.6l-12.44,10A.52.52,0,0,1,515.25,297.86Zm-2.37-7.13,2.57,5.83,10.37-8.33Z" style="fill:#263238"></path><path d="M500.09,268.83h-.5a.49.49,0,0,1-.45-.54.5.5,0,0,1,.54-.46,12,12,0,0,0,9.57-4.45.5.5,0,1,1,.78.63A12.89,12.89,0,0,1,500.09,268.83Z" style="fill:#263238"></path><path d="M503.48,250.21c-.44,1.69-1.55,2.87-2.46,2.63s-1.29-1.81-.84-3.5,1.55-2.88,2.46-2.63S503.93,248.52,503.48,250.21Z" style="fill:#263238"></path><path d="M507.69,244.17a.49.49,0,0,1-.41-.21,4.78,4.78,0,0,0-3.14-2.18,4.29,4.29,0,0,0-3,.82.5.5,0,1,1-.63-.78,5.29,5.29,0,0,1,3.74-1,5.73,5.73,0,0,1,3.81,2.59.49.49,0,0,1-.11.7A.52.52,0,0,1,507.69,244.17Z" style="fill:#263238"></path><path d="M568.52,209.14s-10-12.48-17.83-16.76-6.42,1.42-6.42,1.42-24.61-10.69-27.46-7.84,5,4.28,5,4.28-22.47,1.07-29.24,4.63,1.07,6.07,1.07,6.07-10.7,7.84-8.2,9.63,9.27-.36,9.27-.36S485.07,222,489,224.83s10.7-1.43,10.7-1.43-6.77,12.48-3.92,12.13,10.7-2.5,10.7-2.5-1.07,4.28,1.78,4.64,6.78-2.5,6.78-2.5-3.57,12.84.35,13.91,11.41-3.57,11.41-3.57-6.42,18.55-5.35,25,7.14,1.42,7.14,1.42,2.14,13.55,6.06,14.62,5-2.14,5-2.14-.35,8.92,3.21,10.35,8.92-3.93,8.92-3.93,2.14,8.21,5.35,7.14,5.35-6.07,5.35-6.07-.36,6.07,3.2,3.57S572.44,284,572.44,284s.36,6.77,6.78,2.49,6.41-15,6.41-15,3.93,3.56,6.07-1.79-.72-15.69-.72-15.69,6.07,1.43,5-2.14-3.57-13.19-3.57-13.19,6.78,3.21,5.71-3.21-16.76-17.83-16.76-17.83,6.41-7.49,2.49-8.56-10.7,1.78-10.7,1.78.72-10.7-2.49-8.91S568.52,209.14,568.52,209.14Z" style="fill:#263238"></path><path d="M556.53,298.53a2.38,2.38,0,0,1-1.17-.31c-2-1.08-3.34-4.83-3.86-6.5-1.55,1.39-5.72,4.72-8.84,3.47-2.88-1.15-3.43-6.41-3.52-9.16a4.43,4.43,0,0,1-4.63,1c-3.68-1-5.73-11.08-6.29-14.22-1.08.73-3.24,1.93-5,1.27-1.19-.45-2-1.62-2.27-3.5-.93-5.56,3.51-19.62,4.95-23.95-2.31,1.27-7.48,3.82-10.65,2.95a2.41,2.41,0,0,1-1.49-1.22c-1.54-2.71-.2-9.28.46-12.05-1.42.86-4,2.13-6,1.87a2.44,2.44,0,0,1-1.82-1.06,5.12,5.12,0,0,1-.53-3.38c-2,.55-7.65,2-10,2.3a1,1,0,0,1-1-.42c-1-1.48,1.93-7.62,3.67-11-2.3,1.14-6.75,2.79-9.77.59a2.74,2.74,0,0,1-1.11-2c-.45-3.48,3.83-9.59,5.79-12.17-2.21.54-6.3,1.27-8.24-.12a1.32,1.32,0,0,1-.59-1.14c0-2.38,5.85-7.07,8.05-8.75-1.2-.5-3.15-1.56-3.29-3.13-.11-1.24.88-2.39,3-3.52,5.36-2.82,20-4.08,26.42-4.51-1.33-.5-2.67-1.24-3-2.26a2,2,0,0,1,.7-2c2.79-2.79,21.68,5,27.21,7.39a2.65,2.65,0,0,1,.87-2.24c1.18-.91,3.26-.52,6.39,1.18,6.43,3.51,14.13,12.28,16.92,15.6-.06-1.84.25-4.69,2.56-6a1.56,1.56,0,0,1,1.69,0c1.73,1.1,1.69,6.39,1.6,8.64,1.89-.71,7-2.41,10.28-1.51a2,2,0,0,1,1.54,1.37c.68,2.23-2.34,6.23-3.44,7.58,2.59,1.93,15.53,11.82,16.53,17.84.32,1.93,0,3.28-1,4-1.28,1-3.31.5-4.5.09.66,2.52,2.46,9.37,3.32,12.23a2.14,2.14,0,0,1-.35,2.23c-1,1.06-3.23.88-4.44.69.62,2.54,2.35,10.6.49,15.24-.72,1.81-1.74,2.88-3,3.18a4.23,4.23,0,0,1-3-.63c-.16,2.77-1.11,10.77-6.61,14.44-2.2,1.46-4,1.86-5.36,1.18a4,4,0,0,1-1.84-2.34c-1.11,2.72-3.59,8.14-6.34,10.07a2.4,2.4,0,0,1-2.61.48,3.38,3.38,0,0,1-1.3-2.56c-.95,1.62-2.62,3.92-4.78,4.64A2.33,2.33,0,0,1,556.53,298.53Zm-4.77-8.23.13,0a.49.49,0,0,1,.35.36c.4,1.52,1.82,5.7,3.6,6.66a1.37,1.37,0,0,0,1.11.12c3-1,5-5.74,5-5.78a.49.49,0,0,1,1,.22c-.05,1,.09,3.12.88,3.56.43.24,1.08-.1,1.55-.43,3.39-2.38,6.56-11.08,6.59-11.17a.49.49,0,0,1,.54-.33.5.5,0,0,1,.43.47s.15,2.48,1.64,3.22c1,.51,2.49.14,4.36-1.11,6.12-4.08,6.19-14.46,6.19-14.56a.51.51,0,0,1,.84-.38,3.82,3.82,0,0,0,2.95,1c.94-.21,1.72-1.08,2.31-2.57,2.06-5.13-.7-15.27-.73-15.37a.52.52,0,0,1,.12-.48.49.49,0,0,1,.48-.14c1.28.29,3.58.49,4.28-.25.09-.1.38-.4.12-1.26-1.06-3.54-3.55-13.12-3.57-13.22a.5.5,0,0,1,.16-.51.49.49,0,0,1,.53-.06c.84.39,3.28,1.23,4.42.38.64-.49.84-1.52.58-3.06-1-6.14-16.4-17.4-16.56-17.51a.52.52,0,0,1-.2-.34.47.47,0,0,1,.12-.39c1.63-1.91,4-5.51,3.58-7a1,1,0,0,0-.84-.71c-3.71-1-10.31,1.73-10.37,1.76a.5.5,0,0,1-.49,0,.51.51,0,0,1-.21-.44c.21-3.12,0-7.82-1.09-8.51-.08,0-.25-.16-.66.06C568.05,204,569,209,569,209a.5.5,0,0,1-.88.41c-.1-.12-10-12.45-17.68-16.63-3.54-1.93-4.84-1.62-5.29-1.27-.77.59-.41,2.12-.41,2.13a.49.49,0,0,1-.68.58c-9.39-4.08-25-9.85-26.91-7.95-.59.59-.48.94-.45,1.05.35,1.12,3.36,2.06,5.18,2.39a.49.49,0,0,1,.41.52.51.51,0,0,1-.47.47c-.23,0-22.44,1.1-29,4.58-1.69.89-2.55,1.77-2.48,2.54.11,1.25,2.6,2.32,3.47,2.6a.5.5,0,0,1,.34.4.48.48,0,0,1-.2.48c-3.24,2.38-8.38,6.79-8.37,8.49a.37.37,0,0,0,.17.33c1.88,1.34,7,.15,8.83-.43a.51.51,0,0,1,.56.2.5.5,0,0,1,0,.6c-.07.08-7,8.63-6.51,12.61a1.77,1.77,0,0,0,.71,1.29c3.6,2.62,10.07-1.41,10.13-1.45a.5.5,0,0,1,.61.06.49.49,0,0,1,.1.6c-3,5.53-5.06,10.75-4.5,11.4,2.86-.36,10.63-2.47,10.7-2.49a.51.51,0,0,1,.49.12.5.5,0,0,1,.13.48c-.15.62-.41,2.43.25,3.38a1.46,1.46,0,0,0,1.11.64c2.65.32,6.38-2.38,6.42-2.4a.5.5,0,0,1,.58,0,.51.51,0,0,1,.2.55c-.73,2.63-2.32,10-.88,12.54a1.48,1.48,0,0,0,.88.75c3.68,1,11-3.47,11-3.51a.5.5,0,0,1,.74.59c-.07.18-6.37,18.49-5.33,24.71.25,1.5.8,2.42,1.63,2.73,1.54.58,3.91-1,4.69-1.6a.49.49,0,0,1,.49-.09.53.53,0,0,1,.32.39c.58,3.68,2.74,13.41,5.7,14.22,3.4.93,4.35-1.7,4.39-1.82a.5.5,0,0,1,1,.18c-.09,2.39.24,8.8,2.9,9.86,3.21,1.29,8.32-3.76,8.37-3.81A.51.51,0,0,1,551.76,290.3Z" style="fill:#263238"></path><path d="M546.7,296.62s-7.42,62.93-7.72,71.83,6.53,64.12,6.53,64.12h41l-.89-30,37.1,2.67S611.2,361.67,607,352.18s-8.6-39.18-9.2-40.67-43.13-13.4-45.21-15.18S546.4,291,546.7,296.62Z" style="fill:#7E57C2"></path><path d="M586.47,433.07h-41a.51.51,0,0,1-.5-.44c-.28-2.26-6.83-55.35-6.53-64.19s7.49-69.9,7.71-71.83c-.09-1.85.28-2.95,1.13-3.37,1.57-.77,4,1.32,5.64,2.7.92.8,12.06,4.24,21.89,7.28,19,5.85,23.13,7.29,23.46,8.11.17.42.52,2.38,1.25,6.42,1.72,9.55,4.92,27.32,7.94,34.23,4.13,9.42,15.55,52.72,15.67,53.15a.5.5,0,0,1-.52.63l-36.55-2.63.87,29.42a.55.55,0,0,1-.14.37A.51.51,0,0,1,586.47,433.07Zm-40.52-1h40l-.88-29.47a.51.51,0,0,1,.15-.37.48.48,0,0,1,.39-.14l36.4,2.62c-1.47-5.56-11.62-43.62-15.43-52.33-3.07-7-6.29-24.87-8-34.46-.54-3-1-5.61-1.18-6.16-1.13-.88-13.16-4.6-22.84-7.59-13.17-4.07-21.24-6.6-22.25-7.46s-3.57-3.06-4.55-2.58c-.43.22-.64,1.09-.56,2.47a.25.25,0,0,1,0,.08c-.07.63-7.42,63-7.71,71.79C539.2,376.82,545.31,426.84,546,432.07Z" style="fill:#263238"></path><path d="M612.85,395.86l-27,1.2-1.93,30.43s15.45,2.41,22.94,3.62,14-1,16.66-5.07,2.17-10.38,1.45-13.52-4.83-14.73-4.83-14.73" style="fill:#7E57C2"></path><path d="M610.81,431.93a26,26,0,0,1-4.07-.33c-7.49-1.21-22.94-3.62-22.94-3.62a.51.51,0,0,1-.42-.52L585.31,397a.51.51,0,0,1,.48-.46l27-1.21a.46.46,0,0,1,.52.47.5.5,0,0,1-.47.53l-26.6,1.18-1.87,29.52c2.59.41,15.76,2.47,22.49,3.55,7.05,1.14,13.55-.81,16.16-4.84s2.07-10.13,1.38-13.14-4.77-14.56-4.81-14.67a.5.5,0,1,1,.94-.34c.17.48,4.12,11.65,4.84,14.78s1.24,9.66-1.51,13.91C621.6,429.86,616.6,431.93,610.81,431.93Z" style="fill:#263238"></path><path d="M552.63,296.33s4.75,17.51,5,26.41-1.19,11.58-3.27,8.61-5-7.12-5-7.12l-6.24,5.64L547,293.36S552.34,293.06,552.63,296.33Z" style="fill:#7E57C2"></path><path d="M555.88,333c-.6,0-1.24-.46-1.88-1.37-1.66-2.37-3.89-5.51-4.71-6.67l-5.82,5.27a.48.48,0,0,1-.56.07.49.49,0,0,1-.27-.5l3.86-36.51a.49.49,0,0,1,.47-.44c.23,0,5.78-.28,6.16,3.38.25.95,4.76,17.83,5,26.49.21,6.29-.43,9.73-1.9,10.22A1.34,1.34,0,0,1,555.88,333Zm-6.51-9.28h0a.5.5,0,0,1,.35.21s3,4.15,5.05,7.12c.56.79,1,1,1.14.94.56-.19,1.45-2.34,1.22-9.24-.29-8.75-5-26.13-5-26.3s0-.06,0-.09c-.2-2.26-3.5-2.5-4.69-2.52l-3.67,34.77,5.26-4.76A.47.47,0,0,1,549.37,323.73Z" style="fill:#263238"></path><path d="M590.33,405.76a.5.5,0,0,1-.45-.28c-.1-.21-10.39-21.08-11.85-23.4s-1-25.29-1-27.88a.49.49,0,0,1,.51-.49.5.5,0,0,1,.49.51c-.24,10.08-.22,25.68.81,27.33,1.48,2.37,11.47,22.63,11.9,23.49a.5.5,0,0,1-.23.67A.59.59,0,0,1,590.33,405.76Z" style="fill:#263238"></path><path d="M584.78,341.1l-.13,0a.5.5,0,0,1-.35-.62c.41-1.45.87-3,1.38-4.54a.5.5,0,0,1,.63-.33.51.51,0,0,1,.32.63c-.5,1.56-1,3.08-1.37,4.52A.49.49,0,0,1,584.78,341.1Z" style="fill:#263238"></path><path d="M587.62,332.23a.51.51,0,0,1-.17,0,.5.5,0,0,1-.3-.64c3.55-10,7.53-18.4,7.57-18.48a.5.5,0,1,1,.9.43c0,.08-4,8.4-7.53,18.39A.5.5,0,0,1,587.62,332.23Z" style="fill:#263238"></path><path d="M574,399l1.69-3.63s7.49-3.38,10.63-3.86,15,11.11,16.41,15-2.65,15.45-4.1,18.35-10.38,4.59-14.73,4.59-13-5.31-14.24-7.49S574,399,574,399Z" style="fill:#fff"></path><path d="M583.88,429.92c-4.46,0-13.33-5.31-14.68-7.74-1.24-2.24,3.36-19.81,4.3-23.31l0-.08,1.69-3.63a.49.49,0,0,1,.25-.24c.3-.14,7.58-3.42,10.75-3.9l.24,0c3.75,0,15.3,11.51,16.72,15.3,1.55,4.14-2.82,16.14-4.12,18.75C597.46,428.25,588.33,429.92,583.88,429.92Zm-9.43-30.75c-2.66,10-5.1,21.23-4.38,22.52,1.08,1.93,9.57,7.23,13.81,7.23,4.77,0,13-1.85,14.28-4.31,1.54-3.08,5.44-14.35,4.09-17.95-1.44-3.82-13-15.07-15.88-14.65s-9.2,3.24-10.32,3.74Z" style="fill:#263238"></path><path d="M580.24,422.18s5.49-4.31,4-12.92-6-11.4-6-11.4l-47-8.33s-21.37-8.91-22.85-8.61-13.36,12.17-13.36,13.95,1.48,16.33,1.48,16.33a2,2,0,0,0,2.11.23s0,3.08,1.45,3.26a2,2,0,0,0,2-.73s.9,2.36,2.71,2,3.8-2.71,3.8-2.71.36,2.53,1.63,1.27,6-7.61,6-7.61,9.23,2.72,13.22,2a54.62,54.62,0,0,0,9.41-3.08l38,17S579.49,423,580.24,422.18Z" style="fill:#bababa"></path><path d="M577.37,423.34h-.57a.48.48,0,0,1-.18,0l-37.81-16.93a52.9,52.9,0,0,1-9.31,3c-3.67.66-11.38-1.42-13.11-1.91-.94,1.25-4.68,6.24-5.81,7.38a1.27,1.27,0,0,1-1.33.45,1.68,1.68,0,0,1-.92-1.06,7.85,7.85,0,0,1-3.44,2.19,2.86,2.86,0,0,1-3-1.65,2.71,2.71,0,0,1-1.91.39c-1.39-.17-1.75-2.05-1.85-3.09a2.42,2.42,0,0,1-2-.53.46.46,0,0,1-.15-.31c-.07-.6-1.49-14.59-1.49-16.38,0-2.11,12.18-14.12,13.76-14.44s18,6.49,23.09,8.62l47,8.31a.67.67,0,0,1,.18.07c.19.12,4.69,3,6.2,11.74,1.47,8.58-3.69,13-4.17,13.38C579.89,423.24,578.28,423.34,577.37,423.34Zm-.43-1c1,0,2.54-.09,2.93-.5l.06,0c.21-.17,5.23-4.26,3.82-12.45-1.32-7.65-5.1-10.6-5.67-11L531.17,390l-.1,0c-8-3.33-21.12-8.58-22.55-8.58h0c-1.69.46-12.83,12-12.94,13.47,0,1.61,1.27,14.2,1.46,16a1.54,1.54,0,0,0,1.43.05.52.52,0,0,1,.47,0,.5.5,0,0,1,.23.42c0,.82.26,2.67,1,2.76a1.5,1.5,0,0,0,1.5-.49.5.5,0,0,1,.89.08s.79,2,2.15,1.68c1.62-.32,3.5-2.52,3.52-2.54a.5.5,0,0,1,.88.25,2,2,0,0,0,.48,1.19s.1,0,.3-.21c1.22-1.22,5.88-7.48,5.92-7.54a.52.52,0,0,1,.54-.19c.1,0,9.17,2.68,13,2a54,54,0,0,0,9.3-3,.47.47,0,0,1,.4,0Z" style="fill:#263238"></path><path d="M508.59,413.74h-.09a.5.5,0,0,1-.4-.59,69.73,69.73,0,0,1,1.84-7.33,7,7,0,0,1,2.37-2.88c.24-.19.46-.37.64-.54.74-.74,8.27-5.5,9.13-6a.5.5,0,0,1,.69.15.49.49,0,0,1-.16.69c-3.32,2.1-8.46,5.4-9,5.91-.2.19-.44.39-.72.61a5.84,5.84,0,0,0-2.06,2.48,67,67,0,0,0-1.79,7.15A.49.49,0,0,1,508.59,413.74Z" style="fill:#263238"></path><path d="M502.08,414.46H502a.5.5,0,0,1-.38-.6c0-.09,2.18-9.62,2.72-11.77s9.94-10.86,11-11.83a.5.5,0,0,1,.68.74c-4,3.59-10.34,9.85-10.71,11.33-.54,2.14-2.69,11.66-2.71,11.75A.5.5,0,0,1,502.08,414.46Z" style="fill:#263238"></path><path d="M498.64,411.93h-.06a.5.5,0,0,1-.44-.55c.28-2.25,1.66-13.51,2-14.42s7.52-9.18,8.95-10.83a.5.5,0,0,1,.76.66c-3.24,3.71-8.48,9.86-8.79,10.54s-1.33,9-2,14.17A.5.5,0,0,1,498.64,411.93Z" style="fill:#263238"></path><path d="M461.6,393s-14.67,4.77-17.42,6.06-6.79,5.68-8.07,9.17-1.47,11.55,3.48,15.95,11,2.94,15.41.74S468.75,406,468.75,406Z" style="fill:#bababa"></path><path d="M447.05,427.51a11.42,11.42,0,0,1-7.79-3c-5.17-4.59-4.91-13-3.62-16.51s5.32-8,8.32-9.45c2.75-1.28,16.89-5.88,17.49-6.07a.51.51,0,0,1,.59.23l7.15,13a.51.51,0,0,1,0,.48c-.39.69-9.48,16.85-14,19.09A18.63,18.63,0,0,1,447.05,427.51Zm14.31-33.93c-2.35.77-14.53,4.76-17,5.9s-6.52,5.38-7.81,8.89c-1.21,3.27-1.46,11.14,3.34,15.41s10.73,2.72,14.85.66c3.94-2,12.24-16.4,13.41-18.45Z" style="fill:#263238"></path><path d="M471.14,388.76l5.32,6.6s5.68,3.3,6.42,4.4,2.93,9.72,3.3,10.82-1.84,4.22-3.67,2.94-3.3-7.16-3.67-8.26-2.93-2.38-4.22-2.57-5.5-13.57-5.5-13.57Z" style="fill:#bababa"></path><path d="M483.44,414.32a2.07,2.07,0,0,1-1.22-.4c-1.5-1.05-2.68-4.5-3.63-7.74-.09-.34-.17-.6-.22-.76-.27-.8-2.57-2.05-3.82-2.23s-3.94-7.67-5.91-13.92a.51.51,0,0,1,.05-.4.52.52,0,0,1,.34-.24l2-.37a.52.52,0,0,1,.48.18l5.26,6.53c.87.51,5.75,3.39,6.5,4.51.53.8,1.58,4.53,2.7,8.61.32,1.14.56,2,.66,2.33.32,1-.59,2.55-1.63,3.32A2.71,2.71,0,0,1,483.44,414.32Zm-13.67-24.81c1.9,6,4.24,12.22,5,12.72,1.27.16,4.08,1.49,4.54,2.87.06.17.14.45.24.8.5,1.7,1.83,6.21,3.24,7.21a1.31,1.31,0,0,0,1.63-.18,2.91,2.91,0,0,0,1.28-2.19c-.1-.31-.35-1.22-.67-2.38-.73-2.66-2.09-7.6-2.57-8.32s-4.1-3-6.25-4.25a.41.41,0,0,1-.14-.12l-5.14-6.37Z" style="fill:#263238"></path><path d="M468.94,385.45s-4.77.37-5.14,1.66,2.57,11.92,4.77,15.58,3.3,4.77,4.77,4.77,2-1.65,1.83-2.75-3.67-13.39-4-15.95S470.22,385.27,468.94,385.45Z" style="fill:#bababa"></path><path d="M473.34,408c-1.68,0-2.89-1.17-5.2-5-2.18-3.64-5.27-14.42-4.82-16s4.34-1.92,5.56-2a1.83,1.83,0,0,1,1.92.84,7.32,7.32,0,0,1,.83,2.89c.23,1.58,1.71,7.1,2.79,11.13.75,2.8,1.18,4.4,1.25,4.81a3.27,3.27,0,0,1-.66,2.56A2.12,2.12,0,0,1,473.34,408Zm-4.1-22-.23,0h0c-2.35.18-4.54.79-4.69,1.29-.28,1.05,2.52,11.53,4.72,15.2,2.08,3.47,3.09,4.52,4.34,4.52a1.12,1.12,0,0,0,.9-.42,2.31,2.31,0,0,0,.44-1.75c-.07-.38-.6-2.39-1.23-4.71-1.15-4.28-2.57-9.61-2.81-11.25a6.5,6.5,0,0,0-.68-2.48A.78.78,0,0,0,469.24,385.93Zm-.3-.47h0Z" style="fill:#263238"></path><path d="M464.17,389.31s-5.14,2.2-5.5,3.66,5.13,11,6.05,12.66,4.4,4.22,5.13,4a2.21,2.21,0,0,0,1.29-2.56,11.71,11.71,0,0,0-.92-2s-2.57-5.69-3.67-7.7S464.17,389.31,464.17,389.31Z" style="fill:#bababa"></path><path d="M469.81,410.17c-1.27,0-4.66-2.73-5.53-4.3l-.38-.68c-4.28-7.58-6-11.27-5.72-12.34.41-1.62,4.9-3.62,5.79-4a.5.5,0,0,1,.43,0,.52.52,0,0,1,.26.34c0,.06,1.28,6,2.33,7.94s3.58,7.5,3.69,7.73h0a12.5,12.5,0,0,1,.93,2.07,2.47,2.47,0,0,1-.24,2,2.42,2.42,0,0,1-1.4,1.23Zm-6-20.16c-2.2,1-4.48,2.39-4.66,3.09-.09.44.51,2.54,5.62,11.6l.39.69c.85,1.53,4,3.78,4.61,3.78a1.53,1.53,0,0,0,.72-.73,1.48,1.48,0,0,0,.17-1.19,9.92,9.92,0,0,0-.87-1.91c-.05-.11-2.6-5.75-3.68-7.72C465.19,395.92,464.17,391.61,463.81,390Z" style="fill:#263238"></path><path d="M459,394.63s-3.85,3.66-3.85,5.5,5.32,8.62,7,9.35,4,2,5.5,1.65a4,4,0,0,0,2.2-1.47l-4.77-2.56Z" style="fill:#bababa"></path><path d="M467.09,411.69a12,12,0,0,1-4.39-1.41l-.75-.34c-1.67-.74-7.27-7.66-7.27-9.81,0-2,3.6-5.48,4-5.87a.51.51,0,0,1,.43-.13.49.49,0,0,1,.36.28l6,12.32,4.63,2.49a.57.57,0,0,1,.25.32.51.51,0,0,1-.07.4,4.46,4.46,0,0,1-2.5,1.68A3,3,0,0,1,467.09,411.69Zm-8.2-16.22c-1.41,1.43-3.21,3.61-3.21,4.66,0,1.65,5.17,8.23,6.67,8.89l.77.36c1.41.65,3.33,1.54,4.41,1.27a3.51,3.51,0,0,0,1.53-.84l-4.21-2.27a.58.58,0,0,1-.22-.22Z" style="fill:#263238"></path><path d="M455.73,402.14s-1.65,3.67-1.1,5,5.69,6.23,7.52,7.15,3.85,2.2,4.22.73-2.94-4.22-2.94-4.22l-1.28-1.28Z" style="fill:#bababa"></path><path d="M465.54,416.15a7.52,7.52,0,0,1-2.92-1.1l-.69-.35c-1.86-.93-7.15-6-7.76-7.41s.81-4.71,1.11-5.35a.48.48,0,0,1,.38-.29.48.48,0,0,1,.45.17l6.42,7.33,1.26,1.26c.56.46,3.49,3,3.06,4.69a1.27,1.27,0,0,1-.71.93A1.53,1.53,0,0,1,465.54,416.15Zm-9.66-13.07c-.55,1.4-1.06,3.19-.79,3.82.48,1.13,5.49,6,7.28,6.9l.71.36c.93.49,2.22,1.16,2.65,1,0,0,.1-.05.15-.26.2-.79-1.53-2.68-2.77-3.71l-1.31-1.32Z" style="fill:#263238"></path></g><g id="freepik--character-1--inject-2"><polygon points="227.98 432.57 229.67 417.34 233.39 432.57 282.32 432.57 275.36 349.4 174.62 349.4 163.29 369.7 166.66 432.57 227.98 432.57" style="fill:#263238"></polygon><path d="M282.32,433.07H233.39a.51.51,0,0,1-.49-.38l-3-12.48-1.38,12.41a.5.5,0,0,1-.5.45H166.66a.51.51,0,0,1-.5-.48l-3.37-62.86a.52.52,0,0,1,.07-.27l11.32-20.3a.51.51,0,0,1,.44-.26H275.36a.51.51,0,0,1,.5.46l7,83.17a.53.53,0,0,1-.13.38A.52.52,0,0,1,282.32,433.07Zm-48.54-1h48L274.9,349.9h-100L163.8,369.82l3.34,62.25h60.39l1.65-14.78a.49.49,0,0,1,.46-.45.51.51,0,0,1,.52.38Z" style="fill:#263238"></path><path d="M382.83,215.9s3.43-2.77,3.56-1.19-3,6.2-3,6.2Z" style="fill:#fff"></path><path d="M383.36,221.41h-.13a.51.51,0,0,1-.37-.44l-.53-5a.5.5,0,0,1,.19-.44c.81-.66,2.8-2.13,3.8-1.7a1,1,0,0,1,.57.86c.14,1.71-2.79,6-3.12,6.52A.5.5,0,0,1,383.36,221.41Zm0-5.29.35,3.34c1.08-1.72,2.25-3.89,2.18-4.71C385.62,214.63,384.44,215.28,383.36,216.12Z" style="fill:#263238"></path><path d="M334.25,247.14l3.87-8.51s1.29-7,3.35-9.54,7.49-5.16,9-5.94,5.42-4.13,7.74-7,4.39-7,5.68-4.9,1.29,3.09.26,4.9-4.65,8-4.65,8l15.39-4.85s6.85-3.56,6.33-2.51S374,232,372.68,234s-6.6,6.72-11.21,9.36a109.45,109.45,0,0,1-11.35,5.41c-.39.13-3.43,6.06-3.43,6.06Z" style="fill:#fff"></path><path d="M346.69,255.3a.48.48,0,0,1-.26-.07L334,247.57a.48.48,0,0,1-.19-.63l3.84-8.46c.14-.74,1.41-7.16,3.44-9.71s7-5,8.87-5.9l.33-.16c1.51-.76,5.3-4.06,7.58-6.84.55-.68,1.1-1.44,1.62-2.17,1.39-1.94,2.49-3.47,3.63-3.47h0a1.45,1.45,0,0,1,1.19.79c1.37,2.18,1.43,3.39.27,5.42l-4,6.88,14.15-4.47c6.15-3.2,6.56-2.81,6.83-2.54a.61.61,0,0,1,.09.74c-.09.19-.4.82-.83,1.73-2,4.13-6.67,13.82-7.77,15.46-1.29,1.94-6.49,6.73-11.38,9.52a109,109,0,0,1-11.33,5.42,65.55,65.55,0,0,0-3.24,5.85.49.49,0,0,1-.31.25A.32.32,0,0,1,346.69,255.3ZM334.89,247l11.61,7.14c2.9-5.64,3.25-5.76,3.47-5.83a108.39,108.39,0,0,0,11.25-5.36c4.59-2.63,9.78-7.33,11-9.21,1.06-1.59,5.88-11.58,7.7-15.35.19-.41.36-.76.5-1a55.84,55.84,0,0,0-5.31,2.47l-15.47,4.89a.51.51,0,0,1-.54-.16.52.52,0,0,1,0-.57s3.61-6.19,4.64-8c.91-1.59,1-2.4-.25-4.39-.13-.21-.25-.32-.37-.32h0c-.63,0-1.84,1.69-2.82,3.05-.53.75-1.08,1.52-1.66,2.22-2.41,2.95-6.3,6.3-7.9,7.1l-.34.17c-1.82.9-6.66,3.3-8.53,5.63s-3.24,9.25-3.25,9.32l0,.12Z" style="fill:#263238"></path><path d="M379.14,228s3.82-5.93,4.22-7.12-.27-5.54-.53-7.52a1.4,1.4,0,0,0-2.64-.66c-.39.93,0,4.36,0,4.75s-1.45,8.31-1.45,8.31l-.66,3Z" style="fill:#fff"></path><path d="M378.08,229.32a.45.45,0,0,1-.27-.08.51.51,0,0,1-.22-.52l.66-3c.54-3,1.42-7.82,1.44-8.21,0-.06,0-.26,0-.53-.13-1.72-.25-3.62.08-4.4a2,2,0,0,1,2-1,1.94,1.94,0,0,1,1.59,1.84l.09.67c.41,3,.77,6,.41,7.07a79.15,79.15,0,0,1-4.27,7.23.37.37,0,0,1-.12.13l-1.06.79A.47.47,0,0,1,378.08,229.32Zm1.06-1.29h0Zm2.34-15.56a1,1,0,0,0-.83.46,15.62,15.62,0,0,0,0,3.93c0,.31,0,.53,0,.62,0,.41-1.11,6.53-1.46,8.4l-.35,1.63a74.72,74.72,0,0,0,4-6.76c.32-.95-.2-4.78-.45-6.62l-.1-.67c-.05-.41-.22-.91-.73-1Z" style="fill:#263238"></path><path d="M373.73,234s4.88-5.54,5.8-7.26,1.59-8.17,1.72-9.89-1.45-1.45-2.51-.39-.92,7.91-1.05,8.3-3.17,5.94-3.17,5.94Z" style="fill:#fff"></path><path d="M373.73,234.47a.46.46,0,0,1-.23-.06.52.52,0,0,1-.26-.56l.8-3.3a.56.56,0,0,1,0-.12c1.15-2.09,3-5.52,3.13-5.86,0-.08,0-.65.05-1.21.12-3.93.36-6.52,1.13-7.29a2.54,2.54,0,0,1,2.6-.86c.32.14.84.55.76,1.65,0,.08-.66,8-1.78,10.09-.94,1.74-5.66,7.12-5.87,7.35A.48.48,0,0,1,373.73,234.47Zm1.26-3.62-.29,1.24a53.62,53.62,0,0,0,4.39-5.61c.8-1.48,1.47-7.28,1.66-9.7,0-.17,0-.57-.18-.66s-.93.11-1.48.66-.78,5-.83,6.61a8,8,0,0,1-.1,1.5C378,225.29,375.74,229.48,375,230.85Z" style="fill:#263238"></path><path d="M345,244.25s5.54-5.67,7.52-6.59,14.5-4.35,14.5-4.35l3.43-3.17s2.75-5.74,2.77-7.12c0-2.48,3.91-7.62,4.49-5.54.29,1.05-1.06,7.65-2,11.21s-1.72,5.94-3.43,7.39-8.7,6.72-10.81,7.25" style="fill:#fff"></path><path d="M345,244.75a.47.47,0,0,1-.35-.14.5.5,0,0,1,0-.71c.23-.23,5.63-5.74,7.67-6.69s13.11-4,14.46-4.35l3.27-3c1.05-2.2,2.67-5.92,2.68-6.83,0-2.23,2.75-6.3,4.34-6.5a1,1,0,0,1,1.13.84c.37,1.32-1.24,8.64-2,11.47-.86,3.34-1.68,6-3.59,7.64-1.58,1.34-8.74,6.79-11,7.35a.5.5,0,0,1-.61-.36.51.51,0,0,1,.36-.61c2-.48,8.8-5.61,10.62-7.15,1.53-1.3,2.3-3.42,3.26-7.12,1.06-4.09,2.21-10.13,2-11a.38.38,0,0,0-.06-.12,1.78,1.78,0,0,0-.66.43c-1.23,1.1-2.76,3.67-2.79,5.11s-2.53,6.73-2.82,7.33a.39.39,0,0,1-.11.15l-3.43,3.16a.47.47,0,0,1-.2.12c-.13,0-12.51,3.43-14.43,4.32-1.56.73-5.85,4.93-7.37,6.49A.51.51,0,0,1,345,244.75Z" style="fill:#263238"></path><path d="M350.29,227.4a.5.5,0,0,1-.44-.25.51.51,0,0,1,.19-.69c1.8-1,9.07-2.69,9.38-2.76a.49.49,0,0,1,.6.37.5.5,0,0,1-.38.6c-.07,0-7.43,1.7-9.11,2.66A.42.42,0,0,1,350.29,227.4Z" style="fill:#263238"></path><path d="M367.41,225.89a.5.5,0,0,1-.19-1l5.79-2.36a.5.5,0,1,1,.38.92l-5.79,2.37A.43.43,0,0,1,367.41,225.89Z" style="fill:#263238"></path><polygon points="333.92 243.77 352.3 254.09 347.01 261.65 330.57 249.58 333.92 243.77" style="fill:#fff"></polygon><path d="M347,262.15a.45.45,0,0,1-.29-.1L330.28,250a.49.49,0,0,1-.14-.65l3.34-5.81a.51.51,0,0,1,.68-.19l18.38,10.33a.5.5,0,0,1,.25.32.51.51,0,0,1-.08.4l-5.29,7.56a.48.48,0,0,1-.33.2Zm-15.78-12.71,15.67,11.5,4.67-6.68-17.47-9.81Z" style="fill:#263238"></path><path d="M328.85,247.57,352.62,263S328.57,300.25,324,307.12s-11,15.29-18.33,16.9c-2.57.57-30.63-26.92-30.63-26.92l4.29-77.59,4.26-4.1,20.94,62.23Z" style="fill:#7E57C2"></path><path d="M305.65,324.52c-3.1,0-24.43-20.65-31-27.06a.5.5,0,0,1-.15-.38l4.29-77.59a.54.54,0,0,1,.16-.34l4.26-4.1a.49.49,0,0,1,.46-.13.5.5,0,0,1,.36.33l20.64,61.36,23.77-29.35a.5.5,0,0,1,.66-.11l23.76,15.46a.5.5,0,0,1,.15.69c-.24.38-24.11,37.31-28.64,44.1-4.36,6.54-11,15.43-18.63,17.11Zm-30.11-27.61c10.59,10.36,28,26.62,30,26.62h0c7.22-1.6,13.73-10.29,18-16.68s25.69-39.54,28.36-43.67l-23-14.94-24,29.71a.52.52,0,0,1-.48.18.5.5,0,0,1-.39-.34l-20.68-61.48-3.55,3.43Z" style="fill:#263238"></path><polygon points="280.04 259.21 285.06 305.8 277.17 299.35 280.04 259.21" style="fill:#263238"></polygon><path d="M285.05,306.3a.45.45,0,0,1-.31-.11l-7.89-6.45a.51.51,0,0,1-.18-.42l2.87-40.15a.5.5,0,0,1,.49-.46.49.49,0,0,1,.5.45l5,46.59a.49.49,0,0,1-.26.49A.48.48,0,0,1,285.05,306.3Zm-7.36-7.17,6.74,5.51-4.29-39.82Z" style="fill:#263238"></path><path d="M299.08,299.61a.52.52,0,0,1-.38-.17c-.39-.46-3.84-4.51-3.84-6.92s8.31-13.88,9.25-15.18a.51.51,0,0,1,.7-.11.5.5,0,0,1,.11.7c-3.5,4.82-9.06,13-9.06,14.59,0,1.73,2.6,5.1,3.6,6.26a.51.51,0,0,1,0,.71A.54.54,0,0,1,299.08,299.61Z" style="fill:#263238"></path><polygon points="206 191.35 220.33 291.1 221.41 353 257.63 353 256.28 252.98 256.01 200 251.15 190.81 206 191.35" style="fill:#fff"></polygon><path d="M257.63,353.5H221.41a.49.49,0,0,1-.5-.49l-1.08-61.9L205.5,191.42a.52.52,0,0,1,.12-.4.48.48,0,0,1,.37-.17l45.15-.54a.56.56,0,0,1,.45.26l4.86,9.19a.46.46,0,0,1,.06.23l.27,53,1.35,100a.5.5,0,0,1-.14.36A.51.51,0,0,1,257.63,353.5Zm-35.73-1h35.23L255.78,253l-.27-52.87-4.66-8.81-44.27.53L220.82,291Z" style="fill:#263238"></path><polygon points="223.57 208.11 235.2 224.87 228.17 326.65 239.57 343.18 250.39 324.95 238.79 226.09 244.93 207.03 235.2 194.32 223.57 208.11" style="fill:#263238"></polygon><path d="M239.57,343.68a.48.48,0,0,1-.41-.22l-11.4-16.52a.59.59,0,0,1-.09-.32l7-101.61-11.53-16.62a.5.5,0,0,1,0-.61L234.81,194a.52.52,0,0,1,.4-.18.48.48,0,0,1,.38.2l9.73,12.7a.5.5,0,0,1,.08.46l-6.1,19,11.59,98.75a.48.48,0,0,1-.07.31L240,343.43a.51.51,0,0,1-.42.25Zm-10.89-17.16,10.86,15.73,10.34-17.41L238.3,226.15a.55.55,0,0,1,0-.22l6.05-18.81-9.19-12-11,13,11.41,16.44a.53.53,0,0,1,.08.32Z" style="fill:#263238"></path><polygon points="235.2 201.35 220.6 220.27 206 191.35 210.32 187.29 235.2 201.35" style="fill:#fff"></polygon><path d="M220.6,220.77h0a.52.52,0,0,1-.4-.27l-14.6-28.93a.5.5,0,0,1,.11-.59l4.32-4a.5.5,0,0,1,.59-.07l24.87,14a.51.51,0,0,1,.25.34.52.52,0,0,1-.1.4L221,220.58A.49.49,0,0,1,220.6,220.77Zm-14-29.32,14.08,27.89,13.76-17.84-24-13.59Z" style="fill:#263238"></path><polygon points="233.03 200.54 248.98 216.49 251.15 190.81 249.25 189.72 233.03 200.54" style="fill:#fff"></polygon><path d="M249,217a.47.47,0,0,1-.35-.15l-15.95-16a.47.47,0,0,1-.14-.4.47.47,0,0,1,.22-.37L249,189.31a.49.49,0,0,1,.52,0l1.89,1.08a.49.49,0,0,1,.25.48l-2.16,25.68a.51.51,0,0,1-.33.43A.47.47,0,0,1,249,217Zm-15.16-16.38,14.75,14.76,2.05-24.29-1.35-.77Z" style="fill:#263238"></path><path d="M210.33,176.48v10.81s22.43,16.49,24.87,16.49,14.05-14.06,14.05-14.06l-.27-7s-11.08,1.35-18.38-.82S210.33,176.48,210.33,176.48Z" style="fill:#fff"></path><path d="M235.2,204.28c-2.48,0-21.4-13.82-25.17-16.59a.48.48,0,0,1-.2-.4V176.48a.51.51,0,0,1,.19-.4.54.54,0,0,1,.43-.09c.13,0,13.07,3.27,20.29,5.41s18.07.81,18.18.8a.5.5,0,0,1,.39.11.53.53,0,0,1,.17.37l.27,7a.44.44,0,0,1-.11.33C247.67,192.42,237.74,204.28,235.2,204.28ZM210.83,187c8.64,6.34,22.73,16.24,24.37,16.24s8.78-8,13.55-13.73l-.25-6.3c-2.33.24-11.56,1-18-.89-6.3-1.86-17-4.57-19.63-5.24Z" style="fill:#263238"></path><path d="M204.41,114.83s-4.49-5.77-9.49-6.86-13.26,4.86-15.3,10.42-2.43,8.36,2.17,12.23,7.32,5.11,11.45,3.4,6.6-7.14,6.6-7.14Z" style="fill:#263238"></path><path d="M189.87,135.27c-2.73,0-5.16-1.54-8.4-4.27-4.82-4.06-4.38-7.15-2.32-12.78s10.4-11.93,15.88-10.74c5.11,1.11,9.58,6.8,9.77,7a.51.51,0,0,1,.08.49l-4.57,12c-.12.26-2.62,5.66-6.88,7.42A9.32,9.32,0,0,1,189.87,135.27Zm3.8-26.93c-4.68,0-11.71,5.13-13.58,10.22-2,5.42-2.36,8,2,11.68s6.94,5,10.93,3.32,6.33-6.83,6.35-6.89l4.45-11.75c-.87-1-4.8-5.54-9-6.46A5.34,5.34,0,0,0,193.67,108.34Z" style="fill:#263238"></path><path d="M201.34,108.89s-8.27,5-7.86,17.38a119.36,119.36,0,0,0,4.35,26.07c.2.62,3.72,7.86,3.72,7.86s1,13.45,7,17.18,20.9,10.35,27.52,11,12.21.41,14.9-6.21,3.72-23.38,3.72-29.39-1.65-11-1.65-13.86a54,54,0,0,0-.62-13.24c-1.25-8.28-7.25-18-15.11-22.56S209.83,100.61,201.34,108.89Z" style="fill:#fff"></path><path d="M240.3,189.08c-1.37,0-2.79-.1-4.24-.24-6.47-.6-21.41-7.11-27.74-11-5.94-3.68-7.15-16.14-7.26-17.46-.51-1.06-3.5-7.23-3.71-7.84,0-.12-3.94-13.42-4.37-26.22-.4-12,7.32-17.32,8.05-17.79,8.66-8.39,28.55-10.47,36.57-5.83,7.56,4.38,14,14,15.35,22.91a49.39,49.39,0,0,1,.7,11.37c0,.67-.07,1.29-.07,1.95a27.52,27.52,0,0,0,.6,4.45,51.73,51.73,0,0,1,1,9.41c0,5.21-.92,22.6-3.76,29.58C249.23,187.83,245.08,189.08,240.3,189.08Zm-14.51-87.89c-8.52,0-18.64,2.73-24.1,8a.31.31,0,0,1-.09.07c-.08,0-8,5-7.62,16.94a119.56,119.56,0,0,0,4.32,25.93c.15.44,2.29,4.91,3.7,7.81a.48.48,0,0,1,.05.18c0,.13,1.08,13.24,6.8,16.78,6.25,3.88,21,10.3,27.31,10.9s11.76.56,14.38-5.9c2.78-6.84,3.69-24,3.69-29.2a51.21,51.21,0,0,0-1-9.24,28.72,28.72,0,0,1-.61-4.62c0-.68,0-1.32.07-2a48.05,48.05,0,0,0-.69-11.17c-1.29-8.62-7.54-18-14.86-22.2C234.41,102,230.32,101.19,225.79,101.19Zm-24.45,7.7h0Z" style="fill:#263238"></path><path d="M251,182.14c1.89-4.67,3-14.37,3.43-21.79l-5.71-1.18-2.69,1c-2.69,1-5.59-.82-5.59-.82a24.63,24.63,0,0,0-10.55,3.1,62.52,62.52,0,0,0-9.1,5.79l-9.73-4.34s-5-19.45-5.79-23.38,6.62-6.63,7.86-9.32-3.1-4.13-5.17-8.48,3.51-11,3.51-11c2.07-1,4.14-1.86,8.69-1.86s9.73,2.69,14.9,3.93,9.11-4.14,9.11-4.14l.59-.24a29,29,0,0,0-7.42-6.38c-7.86-4.55-27.52-2.48-36,5.8,0,0-8.27,5-7.86,17.38a119.36,119.36,0,0,0,4.35,26.07c.2.62,3.72,7.86,3.72,7.86s1,13.45,7,17.18,20.9,10.35,27.52,11S248.32,188.76,251,182.14Z" style="fill:#263238"></path><path d="M240.3,189.08c-1.37,0-2.79-.1-4.24-.24-6.47-.6-21.41-7.11-27.74-11-5.94-3.68-7.15-16.14-7.26-17.46-.51-1.06-3.5-7.23-3.71-7.84,0-.12-3.94-13.43-4.37-26.22-.4-12,7.32-17.32,8.05-17.79,8.66-8.39,28.55-10.47,36.57-5.83a29.07,29.07,0,0,1,7.55,6.49.5.5,0,0,1,.1.44.47.47,0,0,1-.29.35l-.47.18c-.63.83-4.47,5.43-9.53,4.22-1.94-.47-3.87-1.13-5.74-1.77-3.22-1.11-6.26-2.15-9.05-2.15-4.41,0-6.42.79-8.37,1.76-.6.74-5.17,6.59-3.38,10.36a15.32,15.32,0,0,0,3.2,4.18c1.52,1.54,2.83,2.87,2,4.72-.53,1.15-2,2.23-3.51,3.37-2.23,1.65-4.76,3.53-4.31,5.63.76,3.65,5.16,20.91,5.72,23.13l9.23,4.12a68.14,68.14,0,0,1,8.94-5.65,24.85,24.85,0,0,1,10.79-3.16.43.43,0,0,1,.27.08s2.73,1.71,5.14.78l2.69-1a.54.54,0,0,1,.28,0l5.72,1.18a.49.49,0,0,1,.39.52c-.3,4.77-1.24,16.46-3.47,22h0C249.23,187.83,245.08,189.08,240.3,189.08Zm-14.51-87.89c-8.52,0-18.64,2.73-24.1,8a.31.31,0,0,1-.09.07c-.08,0-8,5-7.62,16.94a119.7,119.7,0,0,0,4.32,25.93c.15.44,2.29,4.91,3.7,7.81a.48.48,0,0,1,.05.18c0,.13,1.08,13.24,6.8,16.78,6.25,3.88,21,10.3,27.31,10.9s11.76.56,14.38-5.9c2.12-5.2,3.05-16.24,3.38-21.2l-5.15-1.06-2.55,1c-2.59,1-5.27-.42-5.9-.79a24.81,24.81,0,0,0-10.18,3,63.4,63.4,0,0,0-9,5.74.49.49,0,0,1-.52.07l-9.72-4.34a.5.5,0,0,1-.28-.34c-.05-.19-5-19.5-5.8-23.4-.58-2.74,2.22-4.81,4.69-6.65,1.43-1.06,2.78-2.06,3.21-3,.53-1.16-.24-2-1.78-3.6a16.45,16.45,0,0,1-3.4-4.46c-2.18-4.58,3.36-11.22,3.59-11.5a.61.61,0,0,1,.16-.12c2.1-1,4.21-1.92,8.91-1.92,3,0,6.07,1.07,9.37,2.2,1.85.64,3.76,1.29,5.65,1.75,4.79,1.14,8.55-3.9,8.59-4a.46.46,0,0,1,.16-.15,27.88,27.88,0,0,0-6.84-5.75C234.41,102,230.32,101.19,225.79,101.19ZM251,182.14h0Z" style="fill:#263238"></path><path d="M244.18,144.68l4.55,14.49s-1,2.07-5.17,1.86-5-3.1-5-3.1" style="fill:#fff"></path><path d="M244.13,161.55l-.6,0c-4.44-.22-5.38-3.33-5.42-3.47a.5.5,0,0,1,1-.27c0,.1.81,2.56,4.51,2.74,3.09.16,4.28-1,4.6-1.43l-4.48-14.27a.5.5,0,0,1,1-.3L249.21,159a.48.48,0,0,1,0,.37C249.13,159.48,248.05,161.55,244.13,161.55Z" style="fill:#263238"></path><path d="M243.09,137.09H243a1,1,0,0,1-.87-1.08c0-.11.31-2.73,4-4s5.64.54,5.73.61a1,1,0,0,1-1.32,1.51s-1.32-1-3.78-.22-2.63,2.22-2.64,2.28A1,1,0,0,1,243.09,137.09Z" style="fill:#263238"></path><path d="M218.47,137.93a1,1,0,0,1-.79-.38,1,1,0,0,1,.17-1.4,21.19,21.19,0,0,1,7.84-3.5,11.73,11.73,0,0,1,9.12,2,1,1,0,0,1-1.23,1.58,9.85,9.85,0,0,0-7.44-1.68,19.81,19.81,0,0,0-7.06,3.12A1,1,0,0,1,218.47,137.93Z" style="fill:#263238"></path><ellipse cx="229.43" cy="145" rx="1.66" ry="2.9" style="fill:#263238"></ellipse><path d="M251,143.35c0,1.6-.74,2.9-1.65,2.9s-1.66-1.3-1.66-2.9.74-2.9,1.66-2.9S251,141.75,251,143.35Z" style="fill:#263238"></path><path d="M199.48,149.86s-3.72-6.21-8.28-4.55-1.86,10.13.63,13.86,11,4.76,11,4.76Z" style="fill:#fff"></path><path d="M202.79,164.43h-.06c-.35,0-8.74-1.1-11.32-5-1.83-2.75-4-8.46-2.84-12a3.91,3.91,0,0,1,2.46-2.62c4.89-1.78,8.72,4.49,8.88,4.76a.35.35,0,0,1,.06.14l3.31,14.07a.5.5,0,0,1-.49.62Zm-10-18.9a4,4,0,0,0-1.38.24,3,3,0,0,0-1.86,2c-1,3.08.93,8.44,2.72,11.12,1.92,2.88,7.84,4.09,9.9,4.43L199,150.05C198.66,149.5,196,145.53,192.76,145.53Z" style="fill:#263238"></path><path d="M242.94,168.9a18.29,18.29,0,0,1-11.38-4.35s.62,8.28,4.34,8.69S242.94,168.9,242.94,168.9Z" style="fill:#fff"></path><path d="M236.37,173.77a4.41,4.41,0,0,1-.52,0c-4.09-.46-4.77-8.8-4.79-9.15a.5.5,0,0,1,.82-.42,18,18,0,0,0,11,4.23.46.46,0,0,1,.46.26.49.49,0,0,1,0,.52C243.21,169.38,240.11,173.77,236.37,173.77Zm-4.18-8.08c.37,2.59,1.45,6.8,3.77,7.05,2.53.29,4.9-2.11,6-3.38A19,19,0,0,1,232.19,165.69Z" style="fill:#263238"></path><path d="M151.39,212.16l-26.34,68.35s-4,13.1.57,18.8,17.66,0,22.79-5.7,21.08-42.73,21.08-42.73Z" style="fill:#7E57C2"></path><path d="M131.41,302.17h-.36a7.32,7.32,0,0,1-5.82-2.54c-4.67-5.84-.82-18.71-.66-19.26L150.93,212a.5.5,0,0,1,.92,0l18.09,38.72a.49.49,0,0,1,0,.41c-.65,1.51-16,37.17-21.17,42.87C145.16,298,137.39,302.17,131.41,302.17Zm20-88.73-25.92,67.25c0,.09-3.85,12.88.49,18.31a6.36,6.36,0,0,0,5.07,2.16c5.73.13,13.41-3.94,17-7.88,4.82-5.36,19.61-39.41,20.9-42.39Z" style="fill:#263238"></path><path d="M207.08,189.18s16.76,83,18.11,89.21-.81,74.34-2.7,91.1-11.35,31.09-24.06,32.17-23.25-4.05-33.25-10.54-14.6-9.73-14.6-9.73,18.65-73.53,18.11-76.23-4.32-34.88-4.32-34.88-14.6-54.6-13-58.12S207.08,189.18,207.08,189.18Z" style="fill:#7E57C2"></path><path d="M195.11,402.31c-11.9,0-21.89-5.38-30.2-10.77-9.9-6.42-14.57-9.71-14.62-9.74a.5.5,0,0,1-.19-.53c7.45-29.37,18.42-73.84,18.1-76-.53-2.69-4.17-33.59-4.33-34.91-1.48-5.54-14.58-54.81-12.93-58.39s50.42-21.24,56-23.24a.52.52,0,0,1,.42,0,.51.51,0,0,1,.24.33c.17.83,16.78,83.06,18.11,89.21,1.43,6.58-.87,75.13-2.69,91.26-2.05,18.15-12.13,31.56-24.52,32.61Q196.78,402.31,195.11,402.31Zm-44-21.13c1.14.79,5.78,4,14.3,9.52,8.94,5.8,19.85,11.58,32.94,10.47,11.71-1,21.64-14.34,23.6-31.73,2-17.81,4-84.95,2.71-90.94s-16.51-81.31-18-88.65C185.85,197.37,153,210,151.85,212.37s7.15,35.9,13,57.78c.05.4,3.8,32.25,4.33,34.91S153.43,372.21,151.15,381.18Z" style="fill:#263238"></path><path d="M207.08,253.79c4.72,7,14.09,20.62,18.35,26.81a15.7,15.7,0,0,0-.24-2.21c-1.35-6.21-18.11-89.21-18.11-89.21s-4.54,1.64-11,4l.76,28.12,11.35,4.06-11.62,4.32S200.86,244.6,207.08,253.79Z" style="fill:#7E57C2"></path><path d="M225.43,281.1a.51.51,0,0,1-.41-.21c-3.91-5.69-13.53-19.68-18.35-26.82h0c-6.19-9.15-10.57-24-10.61-24.2a.5.5,0,0,1,.3-.61l10.34-3.84-10.06-3.6a.49.49,0,0,1-.33-.45l-.76-28.13a.49.49,0,0,1,.32-.48c6.5-2.41,11-4,11-4a.52.52,0,0,1,.42,0,.51.51,0,0,1,.24.33c.17.83,16.78,83.06,18.11,89.21a17.09,17.09,0,0,1,.25,2.28.52.52,0,0,1-.34.51ZM207.5,253.51c4.42,6.54,12.86,18.84,17.25,25.22,0-.09,0-.16-.05-.23-1.27-5.88-16.51-81.31-18-88.65-1.36.49-5.15,1.87-10.15,3.72L197.3,221l11,3.94a.48.48,0,0,1,.33.46.53.53,0,0,1-.32.48L197.15,230c.78,2.54,4.84,15.34,10.35,23.47Z" style="fill:#263238"></path><path d="M251.15,190.81s1.35,38.92-.82,58.66-3,27.3-3.24,29.46,8.38,106.51,9.19,111.65,6,8.92,15.68,10,19.73-9.73,19.73-11.89-14.86-81.37-15.13-82.18,7-91.1,7-91.1S253,191.89,251.15,190.81Z" style="fill:#7E57C2"></path><path d="M273.36,401.16a14.09,14.09,0,0,1-1.45-.08c-9.5-1.06-15.23-4.76-16.12-10.42-.85-5.36-9.44-109.83-9.2-111.79.19-1.47.62-5.44,1.57-14.14l1.68-15.32c2.13-19.47.82-58.2.81-58.59a.5.5,0,0,1,.74-.45c1.9,1.09,31.25,23.68,32.5,24.64a.49.49,0,0,1,.19.44c-2.48,30.74-7.15,89.33-7,91,.13.36,15.14,79.54,15.14,82.25,0,1.15-1.85,3.61-4.51,6C285.41,396.71,279.71,401.16,273.36,401.16ZM251.68,191.77c.19,6.18,1.1,39.95-.85,57.75l-1.67,15.32c-.95,8.7-1.39,12.67-1.57,14.16-.21,2.15,8.37,106.37,9.19,111.5s6.23,8.58,15.24,9.59c6.52.73,12.66-4.06,15-6.16,2.73-2.44,4.18-4.61,4.18-5.24,0-2.38-15-81.49-15.11-82-.27-.8,4.78-63.69,7-91C273.37,208.17,255.76,194.68,251.68,191.77Z" style="fill:#263238"></path><path d="M250.33,249.47c-1.82,16.64-2.68,24.63-3.07,28a153,153,0,0,0,12.54-19.64c7-13.25,8.11-20.82,8.11-20.82l-8.11-8.65h7L258,195.83c-3.62-2.73-6.31-4.73-6.82-5C251.15,190.81,252.5,229.73,250.33,249.47Z" style="fill:#7E57C2"></path><path d="M247.26,278a.57.57,0,0,1-.18,0,.53.53,0,0,1-.32-.53c.25-2.13.68-6.1,1.42-12.89l1.66-15.13h0c2.13-19.47.82-58.2.81-58.59a.5.5,0,0,1,.74-.45c.5.28,2.74,1.94,6.88,5.06a.48.48,0,0,1,.18.26l8.86,32.56a.5.5,0,0,1-.49.63H261l7.32,7.81a.51.51,0,0,1,.13.41c0,.32-1.17,7.81-8.16,21a151.85,151.85,0,0,1-12.58,19.71A.51.51,0,0,1,247.26,278Zm3.57-28.47-1.65,15.12c-.57,5.19-1,8.73-1.22,11.06a149.87,149.87,0,0,0,11.39-18.09c6.23-11.73,7.77-19.05,8-20.42l-7.94-8.47a.49.49,0,0,1-.09-.54.51.51,0,0,1,.46-.3h6.37l-8.64-31.76c-3.26-2.46-5-3.72-5.85-4.35.19,6.18,1.1,39.95-.85,57.75Z" style="fill:#263238"></path><path d="M144.57,192.64S143.42,184,141.88,181s-.38-3.45,1.28-3.45,4.22,3.45,4.73,5.37l.51,1.92Z" style="fill:#fff"></path><path d="M144.57,193.14h-.08a.49.49,0,0,1-.42-.42c0-.09-1.15-8.64-2.63-11.47-.81-1.54-1-2.6-.55-3.31a2.54,2.54,0,0,1,2.27-.87c2,0,4.7,3.8,5.21,5.74l.51,1.92a.48.48,0,0,1,0,.35L145,192.86A.49.49,0,0,1,144.57,193.14Zm-1.41-15.08c-.79,0-1.25.13-1.41.39s-.23.79.58,2.33c1.16,2.23,2.09,7.52,2.5,10.19l3-6.18-.46-1.73C146.9,181.16,144.45,178.06,143.16,178.06Z" style="fill:#263238"></path><path d="M150.45,208.87s-7.16-10-7.29-11.37,4.86-18.15,5-18.53,6.51-7.8,7-8.18,2.17-.77,2.42-.26a2.51,2.51,0,0,1-.25,2.3l-4.86,6-.89,4.73a27.31,27.31,0,0,0,2.17-3.45c0-.39,3.19-3.84,5-5.5s4.35-4,5-2.94.64,1.66.25,2.17-6,6.27-6.26,6.65S153.51,191,153.51,191s4.6-6.52,5.24-7.67,5.75-4.85,6.27-5.49,2.94-1.15,2.42,1-5,5.24-5,5.24L160,190.21s6.22-4.3,7.18-4.78,3.11.48,2.39,1.43-7.41,6.23-7.41,6.23l-2.64,4.78s10.29,11.25,10.53,17.47,0,16,0,16l-16.51-9.81,1.2-4.07Z" style="fill:#fff"></path><path d="M170.08,231.87a.45.45,0,0,1-.25-.07L153.31,222a.51.51,0,0,1-.22-.57l1.14-3.88L150,209.13c-1.26-1.75-7.22-10.13-7.36-11.59s5-18.57,5-18.73c.2-.59,6.78-8.11,7.21-8.42a3.79,3.79,0,0,1,2.51-.56.92.92,0,0,1,.66.48,3,3,0,0,1-.31,2.83L153,179.06l-.43,2.24a8.3,8.3,0,0,0,.75-1.26c0-.81,5.08-5.74,5.13-5.79,2.38-2.2,4-3.45,5-3.31a1,1,0,0,1,.74.48,2.31,2.31,0,0,1,.23,2.73c-.19.26-1.32,1.45-3.17,3.37-1.3,1.36-2.92,3-3.08,3.26s-1.36,3.3-2.61,6.44c1.21-1.74,2.48-3.6,2.79-4.15.41-.75,2.14-2.16,4.35-3.93.84-.67,1.8-1.44,2-1.64a2.47,2.47,0,0,1,2.61-.57c.39.19,1,.71.69,2-.51,2.16-4.22,4.86-5.06,5.45l-1.77,4.47c1.9-1.3,5.19-3.54,5.89-3.89a2.8,2.8,0,0,1,2.95.71,1.11,1.11,0,0,1,.06,1.47c-.71,1-6.44,5.48-7.43,6.26l-2.41,4.38c1.6,1.79,10.2,11.65,10.42,17.52.24,6.17,0,16,0,16.07a.5.5,0,0,1-.5.48Zm-15.92-10.54,15.44,9.18c.05-2.53.18-10.08,0-15.15-.23-6-10.29-17-10.4-17.15a.5.5,0,0,1-.06-.58l2.63-4.79a.45.45,0,0,1,.13-.15c2.67-2.1,6.83-5.46,7.32-6.13.05-.06.08-.1,0-.23a1.85,1.85,0,0,0-1.74-.46c-.75.38-5.39,3.56-7.11,4.75a.5.5,0,0,1-.75-.59l2.43-6.14a.43.43,0,0,1,.18-.22c1.2-.83,4.4-3.32,4.78-4.95.11-.48.06-.78-.16-.89a1.54,1.54,0,0,0-1.39.3,21.12,21.12,0,0,1-2.12,1.79,29.59,29.59,0,0,0-4.1,3.63c-.64,1.17-5.08,7.45-5.27,7.72a.5.5,0,0,1-.87-.47c1.2-3.05,4-10.19,4.26-10.58.14-.21,1.08-1.19,3.19-3.39,1.3-1.36,2.92-3.05,3.09-3.28s.4-.52-.28-1.6c-.23-.12-1.08.13-4.22,3a45.62,45.62,0,0,0-4.83,5.23c0,.24-.34.93-2.26,3.64a.5.5,0,0,1-.89-.39l.89-4.72a.6.6,0,0,1,.1-.23s4.35-5.36,4.86-6a2.08,2.08,0,0,0,.2-1.76,3.36,3.36,0,0,0-1.68.43c-.56.45-6.54,7.4-6.88,8s-5,17-4.94,18.27c.08.81,3.72,6.29,7.19,11.13a.25.25,0,0,1,0,.07l4.32,8.62a.52.52,0,0,1,0,.37Z" style="fill:#263238"></path><path d="M155.17,198.89a.49.49,0,0,1-.49-.41,7.87,7.87,0,0,1,.4-2.66.8.8,0,0,1,.08-.16l4.48-5.75a.5.5,0,1,1,.79.61L156,196.2a6.6,6.6,0,0,0-.34,2.11.51.51,0,0,1-.41.58Z" style="fill:#263238"></path><path d="M151.34,197.23a.5.5,0,0,1-.46-.3c-.45-1.06.47-2.89.66-3.25l1.77-4.05a.5.5,0,0,1,.92.4l-1.79,4.09a4.17,4.17,0,0,0-.64,2.41.5.5,0,0,1-.26.66A.48.48,0,0,1,151.34,197.23Z" style="fill:#263238"></path><path d="M147.64,197.1a.49.49,0,0,1-.41-.21c-.33-.45-1.39-2-1.24-2.92s4-8.34,5.16-10.63a.5.5,0,1,1,.89.46c-1.88,3.66-4.92,9.72-5.06,10.34a5.32,5.32,0,0,0,1.06,2.17.51.51,0,0,1-.11.7A.52.52,0,0,1,147.64,197.1Z" style="fill:#263238"></path><polygon points="153.41 219.03 173.79 230.89 169.66 240.69 149.79 228.31 153.41 219.03" style="fill:#fff"></polygon><path d="M169.66,241.2a.56.56,0,0,1-.27-.08l-19.86-12.38a.51.51,0,0,1-.2-.61l3.61-9.29a.51.51,0,0,1,.3-.29.52.52,0,0,1,.42,0L174,230.46a.51.51,0,0,1,.21.63l-4.13,9.8a.51.51,0,0,1-.31.28A.4.4,0,0,1,169.66,241.2Zm-19.25-13.09,19,11.85,3.73-8.86-19.5-11.35Z" style="fill:#263238"></path><path d="M149,226.25l27.09,17.8s-15.74,40.76-16.25,42.05-8.26,17.8-13.68,21.41-16,2.07-20.38-3.09-4.9-11.87-3.35-15.74S149,226.25,149,226.25Z" style="fill:#7E57C2"></path><path d="M138.6,310c-5,0-10.32-1.89-13.18-5.25-4.43-5.22-5.09-12.12-3.44-16.25,1.54-3.83,26.33-61.85,26.58-62.44a.5.5,0,0,1,.73-.22l27.09,17.8a.49.49,0,0,1,.19.6c-.15.41-15.74,40.78-16.25,42.06-.66,1.64-8.4,18-13.86,21.64A14.34,14.34,0,0,1,138.6,310Zm10.65-83c-2.56,6-24.89,58.26-26.34,61.88-1.54,3.84-.91,10.31,3.27,15.22s14.5,6.49,19.73,3,12.92-19.78,13.48-21.19c.48-1.2,14.51-37.54,16.11-41.66Z" style="fill:#263238"></path></g><g id="freepik--Drinks--inject-2"><rect x="309.88" y="389" width="26.26" height="5.35" style="fill:#fff"></rect><path d="M336.15,394.85H309.88a.51.51,0,0,1-.5-.5V389a.5.5,0,0,1,.5-.5h26.27a.5.5,0,0,1,.5.5v5.35A.51.51,0,0,1,336.15,394.85Zm-25.77-1h25.27V389.5H310.38Z" style="fill:#263238"></path><polygon points="332.86 432.57 313.17 432.57 309.88 396.79 336.15 396.79 332.86 432.57" style="fill:#787878"></polygon><path d="M332.86,433.07H313.17a.5.5,0,0,1-.5-.46l-3.29-35.78a.5.5,0,0,1,.5-.54h26.27a.52.52,0,0,1,.37.16.47.47,0,0,1,.12.38l-3.28,35.78A.5.5,0,0,1,332.86,433.07Zm-19.24-1h18.79l3.19-34.78H310.43Z" style="fill:#263238"></path><rect x="307.29" y="392.53" width="31.45" height="6.36" style="fill:#fff"></rect><path d="M338.74,399.39H307.29a.5.5,0,0,1-.5-.5v-6.36a.5.5,0,0,1,.5-.5h31.45a.5.5,0,0,1,.5.5v6.36A.5.5,0,0,1,338.74,399.39Zm-30.95-1h30.45V393H307.79Z" style="fill:#263238"></path><rect x="639.69" y="389" width="26.26" height="5.35" style="fill:#fff"></rect><path d="M666,394.85H639.69a.5.5,0,0,1-.5-.5V389a.5.5,0,0,1,.5-.5H666a.5.5,0,0,1,.5.5v5.35A.5.5,0,0,1,666,394.85Zm-25.76-1h25.26V389.5H640.19Z" style="fill:#263238"></path><polygon points="662.67 432.57 642.97 432.57 639.69 396.79 665.95 396.79 662.67 432.57" style="fill:#787878"></polygon><path d="M662.67,433.07H643a.51.51,0,0,1-.5-.46l-3.28-35.78a.48.48,0,0,1,.13-.38.51.51,0,0,1,.37-.16H666a.51.51,0,0,1,.37.16.48.48,0,0,1,.13.38l-3.28,35.78A.51.51,0,0,1,662.67,433.07Zm-19.24-1h18.78l3.19-34.78H640.24Z" style="fill:#263238"></path><rect x="637.09" y="392.53" width="31.45" height="6.36" style="fill:#fff"></rect><path d="M668.55,399.39H637.09a.5.5,0,0,1-.5-.5v-6.36a.51.51,0,0,1,.5-.5h31.46a.51.51,0,0,1,.5.5v6.36A.5.5,0,0,1,668.55,399.39Zm-31-1h30.46V393H637.59Z" style="fill:#263238"></path></g><g id="freepik--Device--inject-2"><rect x="453.11" y="429.07" width="62.72" height="3.28" style="fill:#d1d1d1"></rect><path d="M515.84,432.85H453.11a.5.5,0,0,1-.5-.5v-3.28a.5.5,0,0,1,.5-.5h62.73a.5.5,0,0,1,.5.5v3.28A.5.5,0,0,1,515.84,432.85Zm-62.23-1h61.73v-2.28H453.61Z" style="fill:#263238"></path><polygon points="446.68 348.81 320.72 348.81 328.53 432.35 454.49 432.35 446.68 348.81" style="fill:#d1d1d1"></polygon><path d="M454.49,432.85h-126a.51.51,0,0,1-.5-.45l-7.81-83.54a.56.56,0,0,1,.13-.39.52.52,0,0,1,.37-.16h126a.5.5,0,0,1,.5.45L455,432.3a.52.52,0,0,1-.13.39A.51.51,0,0,1,454.49,432.85Zm-125.51-1h125l-7.71-82.54h-125Z" style="fill:#263238"></path></g></svg>
