<svg viewBox="0 0 100 100" xmlns="http://www.w3.org/2000/svg"><path d="M76,68.5Q62,87,43.5,77.5Q25,68,17.5,44.5Q10,21,37.5,12.5Q65,4,77.5,27Q90,50,76,68.5Z" stroke="none" stroke-width="0" fill="#f6e3e6"/><path d="M72,68.5Q62,87,38,81.5Q14,76,12.5,49Q11,22,37,16Q63,10,72.5,30Q82,50,72,68.5Z" stroke="none" stroke-width="0" fill="#f4e0e6"/><path d="M74,69.5Q63,89,41,81Q19,73,19.5,50.5Q20,28,41.5,19Q63,10,74,30Q85,50,74,69.5Z" stroke="none" stroke-width="0" fill="#f2dde6"/><path d="M69.5,72Q64,94,46,80Q28,66,22.5,46Q17,26,37,27.5Q57,29,66,39.5Q75,50,69.5,72Z" stroke="none" stroke-width="0" fill="#f0dae6"/><path d="M71.5,62.5Q58,75,34,77Q10,79,10,50Q10,21,36.5,15.5Q63,10,74,30Q85,50,71.5,62.5Z" stroke="none" stroke-width="0" fill="#eed7e6"/><path d="M74.5,72.5Q65,95,46,81Q27,67,18.5,44Q10,21,37.5,12.5Q65,4,74.5,27Q84,50,74.5,72.5Z" stroke="none" stroke-width="0" fill="#ecd4e6"/><path d="M70,60.5Q57,71,38,71.5Q19,72,22.5,52Q26,32,43,25.5Q60,19,71.5,34.5Q83,50,70,60.5Z" stroke="none" stroke-width="0" fill="#ead1e6"/><path d="M69.5,73Q65,96,48,80Q31,64,30.5,50Q30,36,44,30.5Q58,25,66,37.5Q74,50,69.5,73Z" stroke="none" stroke-width="0" fill="#e8cee6"/><path d="M82,71Q64,92,48,77.5Q32,63,30.5,48.5Q29,34,44,27.5Q59,21,79.5,35.5Q100,50,82,71Z" stroke="none" stroke-width="0" fill="#e6cbe6"/><path d="M70,62Q58,74,40.5,71.5Q23,69,21.5,48.5Q20,28,40.5,22Q61,16,71.5,33Q82,50,70,62Z" stroke="none" stroke-width="0" fill="#e4c8e6"/><path d="M73.5,61.5Q58,73,38,73Q18,73,25.5,55.5Q33,38,46,31Q59,24,74,37Q89,50,73.5,61.5Z" stroke="none" stroke-width="0" fill="#e2c5e6"/><path d="M77.5,66.5Q61,83,39.5,78Q18,73,19.5,51Q21,29,41.5,21.5Q62,14,78,32Q94,50,77.5,66.5Z" stroke="none" stroke-width="0" fill="#e0c2e6"/><path d="M80,65Q60,80,42,74.5Q24,69,20,47Q16,25,38.5,20.5Q61,16,80.5,33Q100,50,80,65Z" stroke="none" stroke-width="0" fill="#debfe6"/><path d="M72.5,70.5Q63,91,45,79Q27,67,22.5,47Q18,27,39.5,22Q61,17,71.5,33.5Q82,50,72.5,70.5Z" stroke="none" stroke-width="0" fill="#dcbce6"/><path d="M73.5,62.5Q58,75,40,72.5Q22,70,23.5,51Q25,32,41.5,28.5Q58,25,73.5,37.5Q89,50,73.5,62.5Z" stroke="none" stroke-width="0" fill="#dab9e6"/><path d="M73.5,68Q62,86,41,79Q20,72,25.5,54Q31,36,47.5,21Q64,6,74.5,28Q85,50,73.5,68Z" stroke="none" stroke-width="0" fill="#d8b6e6"/><path d="M69,62Q58,74,34,76.5Q10,79,13.5,52.5Q17,26,40.5,16Q64,6,72,28Q80,50,69,62Z" stroke="none" stroke-width="0" fill="#d6b3e6"/><path d="M74,62Q58,74,39.5,72.5Q21,71,26.5,54Q32,37,48,21Q64,5,77,27.5Q90,50,74,62Z" stroke="none" stroke-width="0" fill="#d4b0e6"/><path d="M81,72.5Q65,95,40,85Q15,75,14,49Q13,23,36.5,20.5Q60,18,78.5,34Q97,50,81,72.5Z" stroke="none" stroke-width="0" fill="#d2ade6"/><path d="M75,60.5Q57,71,45,66.5Q33,62,25.5,44.5Q18,27,39,23.5Q60,20,76.5,35Q93,50,75,60.5Z" stroke="none" stroke-width="0" fill="#d0aae6"/><path d="M74.5,71.5Q64,93,37,86Q10,79,16.5,55Q23,31,44,18Q65,5,75,27.5Q85,50,74.5,71.5Z" stroke="none" stroke-width="0" fill="#cea7e6"/><path d="M64.5,62Q58,74,36,75Q14,76,19,53.5Q24,31,40.5,29Q57,27,64,38.5Q71,50,64.5,62Z" stroke="none" stroke-width="0" fill="#cca4e6"/><path d="M68,67Q61,84,46.5,73.5Q32,63,32,50Q32,37,47,25Q62,13,68.5,31.5Q75,50,68,67Z" stroke="none" stroke-width="0" fill="#caa1e6"/><path d="M75,71Q64,92,39.5,83.5Q15,75,17,51.5Q19,28,40,21.5Q61,15,73.5,32.5Q86,50,75,71Z" stroke="none" stroke-width="0" fill="#c89ee6"/><path d="M78.5,66Q60,82,39,77.5Q18,73,25,55Q32,37,47,25Q62,13,79.5,31.5Q97,50,78.5,66Z" stroke="none" stroke-width="0" fill="#c69be6"/><path d="M71,67.5Q61,85,42.5,77Q24,69,22.5,49Q21,29,40,26Q59,23,70,36.5Q81,50,71,67.5Z" stroke="none" stroke-width="0" fill="#c498e6"/><path d="M77.5,64Q59,78,45.5,70.5Q32,63,32.5,50.5Q33,38,48.5,23Q64,8,80,29Q96,50,77.5,64Z" stroke="none" stroke-width="0" fill="#c295e6"/><path d="M75.5,71Q64,92,39,84Q14,76,22.5,56.5Q31,37,43.5,33.5Q56,30,71.5,40Q87,50,75.5,71Z" stroke="none" stroke-width="0" fill="#c092e6"/><path d="M71,60Q57,70,37.5,72Q18,74,14,47.5Q10,21,36.5,16Q63,11,74,30.5Q85,50,71,60Z" stroke="none" stroke-width="0" fill="#be8fe6"/><path d="M67,61Q57,72,34.5,74.5Q12,77,21,56.5Q30,36,47,21.5Q64,7,70.5,28.5Q77,50,67,61Z" stroke="none" stroke-width="0" fill="#bc8ce6"/><path d="M69,65.5Q60,81,43.5,73.5Q27,66,25,48.5Q23,31,42.5,22.5Q62,14,70,32Q78,50,69,65.5Z" stroke="none" stroke-width="0" fill="#ba89e6"/><path d="M71,73.5Q65,97,37.5,88Q10,79,13.5,52.5Q17,26,37,26.5Q57,27,67,38.5Q77,50,71,73.5Z" stroke="none" stroke-width="0" fill="#b886e6"/><path d="M67.5,63.5Q59,77,43,72Q27,67,18.5,44Q10,21,36.5,15.5Q63,10,69.5,30Q76,50,67.5,63.5Z" stroke="none" stroke-width="0" fill="#b683e6"/><path d="M74,63.5Q59,77,34.5,78Q10,79,17,55Q24,31,40.5,30.5Q57,30,73,40Q89,50,74,63.5Z" stroke="none" stroke-width="0" fill="#b480e6"/><path d="M66,62Q58,74,41.5,71Q25,68,21,47Q17,26,38,23.5Q59,21,66.5,35.5Q74,50,66,62Z" stroke="none" stroke-width="0" fill="#b27de6"/><path d="M76,69.5Q63,89,37,84Q11,79,13,52Q15,25,38.5,19Q62,13,75.5,31.5Q89,50,76,69.5Z" stroke="none" stroke-width="0" fill="#b07ae6"/><path d="M68,69.5Q63,89,47,76.5Q31,64,24,45Q17,26,37.5,25Q58,24,65.5,37Q73,50,68,69.5Z" stroke="none" stroke-width="0" fill="#ae77e6"/><path d="M73,65Q60,80,43,74Q26,68,26.5,51Q27,34,42,30.5Q57,27,71.5,38.5Q86,50,73,65Z" stroke="none" stroke-width="0" fill="#ac74e6"/><path d="M73,59.5Q56,69,38.5,70Q21,71,19,48.5Q17,26,38,23.5Q59,21,74.5,35.5Q90,50,73,59.5Z" stroke="none" stroke-width="0" fill="#aa71e6"/><path d="M77,63.5Q59,77,40.5,73.5Q22,70,25,52Q28,34,46,21Q64,8,79.5,29Q95,50,77,63.5Z" stroke="none" stroke-width="0" fill="#a86ee6"/><path d="M66.5,63.5Q59,77,45.5,70Q32,63,21.5,42.5Q11,22,35,23Q59,24,66.5,37Q74,50,66.5,63.5Z" stroke="none" stroke-width="0" fill="#a66be6"/><path d="M70.5,73.5Q65,97,38,87.5Q11,78,14.5,52.5Q18,27,38.5,24.5Q59,22,67.5,36Q76,50,70.5,73.5Z" stroke="none" stroke-width="0" fill="#a468e6"/><path d="M79,67.5Q61,85,41.5,78Q22,71,20,49Q18,27,38.5,25Q59,23,78,36.5Q97,50,79,67.5Z" stroke="none" stroke-width="0" fill="#a265e6"/><path d="M71.5,71.5Q64,93,47.5,78.5Q31,64,21.5,43.5Q12,23,34.5,25Q57,27,68,38.5Q79,50,71.5,71.5Z" stroke="none" stroke-width="0" fill="#a062e6"/><path d="M69.5,73Q65,96,42,84Q19,72,25.5,54.5Q32,37,48,22Q64,7,69,28.5Q74,50,69.5,73Z" stroke="none" stroke-width="0" fill="#9e5fe6"/><path d="M78,67.5Q61,85,38,80.5Q15,76,15.5,50.5Q16,25,39,18.5Q62,12,78.5,31Q95,50,78,67.5Z" stroke="none" stroke-width="0" fill="#9c5ce6"/><path d="M68,62.5Q58,75,38,74Q18,73,18.5,50.5Q19,28,40,22Q61,16,69.5,33Q78,50,68,62.5Z" stroke="none" stroke-width="0" fill="#9a59e6"/><path d="M78,64.5Q59,79,44.5,72Q30,65,21.5,44Q13,23,35.5,25Q58,27,77.5,38.5Q97,50,78,64.5Z" stroke="none" stroke-width="0" fill="#9856e6"/><path d="M71,67.5Q61,85,42.5,77Q24,69,22.5,49Q21,29,40,26Q59,23,70,36.5Q81,50,71,67.5Z" stroke="none" stroke-width="0" fill="#9653e6"/><path d="M72.5,59.5Q56,69,36,72Q16,75,18,51.5Q20,28,40.5,21.5Q61,15,75,32.5Q89,50,72.5,59.5Z" stroke="none" stroke-width="0" fill="#9450e6"/><path d="M71.5,72Q64,94,44.5,81Q25,68,22.5,48Q20,28,42,16.5Q64,5,71.5,27.5Q79,50,71.5,72Z" stroke="none" stroke-width="0" fill="#924de6"/><path d="M78,71Q64,92,38.5,84.5Q13,77,19,54.5Q25,32,44,20.5Q63,9,77.5,29.5Q92,50,78,71Z" stroke="none" stroke-width="0" fill="#6441a5"/></svg>