<svg xmlns="http://www.w3.org/2000/svg" viewBox="0 0 500 500"><g id="freepik--Plants--inject-2"><path d="M61.4,361.42l-16.28.48-16.28-.48c-.7,11,1.44,22.2,4.4,27.68h0a7.4,7.4,0,0,0,3.22,3.28c4.8,2.77,12.57,2.77,17.34,0A7.29,7.29,0,0,0,57,389C60,383.51,62.1,372.36,61.4,361.42Z" style="fill:#fff"></path><path d="M56.59,354.76c6.38,3.68,6.42,9.65.08,13.33s-16.65,3.69-23,0-6.41-9.65-.07-13.33S50.22,351.07,56.59,354.76Z" style="fill:#ebebeb"></path><path d="M54.07,356.22c5,2.87,5,7.53.06,10.41s-13,2.87-18,0-5-7.54-.06-10.41S49.1,353.35,54.07,356.22Z" style="fill:#e0e0e0"></path><g style="opacity:0.15"><path d="M54.07,356.22c5,2.87,5,7.53.06,10.41s-13,2.87-18,0-5-7.54-.06-10.41S49.1,353.35,54.07,356.22Z"></path></g><path d="M36.82,328.11c-2.65-3.3-5.73-6.25-8.16-9.7-1.65-2.36-3-5.25-2.34-8.05a7.2,7.2,0,0,1,5.7-5,10.9,10.9,0,0,1,7.65,1.7,23.64,23.64,0,0,1,5.78,5.51,57.45,57.45,0,0,1,12.1,41A8.51,8.51,0,0,1,56,358.3a4.71,4.71,0,0,1-4.86,1.49c-4.44-1.32-3.85-7.31-4.58-10.84a49.48,49.48,0,0,0-5.09-13.83A48.67,48.67,0,0,0,36.82,328.11Z" style="fill:#19A811"></path><path d="M36.82,328.11c-2.65-3.3-5.73-6.25-8.16-9.7-1.65-2.36-3-5.25-2.34-8.05a7.2,7.2,0,0,1,5.7-5,10.9,10.9,0,0,1,7.65,1.7,23.64,23.64,0,0,1,5.78,5.51,57.45,57.45,0,0,1,12.1,41A8.51,8.51,0,0,1,56,358.3a4.71,4.71,0,0,1-4.86,1.49c-4.44-1.32-3.85-7.31-4.58-10.84a49.48,49.48,0,0,0-5.09-13.83A48.67,48.67,0,0,0,36.82,328.11Z" style="fill:#fff;opacity:0.2"></path><path d="M51.45,355.32a.38.38,0,0,1-.31-.36c-.31-7.12-2.63-31.42-19.37-45.21a.39.39,0,1,1,.49-.6c17,14,19.34,38.57,19.65,45.77a.38.38,0,0,1-.37.41Z" style="fill:#f0f0f0"></path><path d="M53.9,356.09a11.87,11.87,0,0,1-5.44,7.54A15.28,15.28,0,0,1,40.23,365a35.5,35.5,0,0,1-8.35-2c-1.35-.45-2.84-1.06-3-2.73a3,3,0,0,1,1-2.34,7.88,7.88,0,0,1,.87-.74.87.87,0,0,0-.46-1.55,18.86,18.86,0,0,1-2.38-.29,10.53,10.53,0,0,1-5-2.26,8.25,8.25,0,0,1-2.31-3.42c-.4-1.12-.52-2.52.33-3.36a3.6,3.6,0,0,1,1.85-.8c.6-.13,1.19-.24,1.79-.33a.8.8,0,0,0,.19-1.52l-2.53-1.05a4.94,4.94,0,0,1-1.92-1.19A4.2,4.2,0,0,1,19.8,338c.31-1.58.85-3.11,1.22-4.68a9.93,9.93,0,0,0,.17-4.78,40.1,40.1,0,0,1,14.15.95,9.93,9.93,0,0,1,3.86,1.69c1.58,1.26,2,3.15,1.82,5.2a.37.37,0,0,0,.69.19l1.61-3a1.93,1.93,0,0,1,2.51-.8,11.69,11.69,0,0,1,3.69,2.9,6.41,6.41,0,0,1,1.58,4.73,40.64,40.64,0,0,1-1.18,6.93.65.65,0,0,0,1,.68L51,348a2.21,2.21,0,0,1,1.52-.45c1.42.18,1.79,1.63,1.88,2.86A24,24,0,0,1,53.9,356.09Z" style="fill:#19A811"></path><path d="M53.9,356.09a11.87,11.87,0,0,1-5.44,7.54A15.28,15.28,0,0,1,40.23,365a35.5,35.5,0,0,1-8.35-2c-1.35-.45-2.84-1.06-3-2.73a3,3,0,0,1,1-2.34,7.88,7.88,0,0,1,.87-.74.87.87,0,0,0-.46-1.55,18.86,18.86,0,0,1-2.38-.29,10.53,10.53,0,0,1-5-2.26,8.25,8.25,0,0,1-2.31-3.42c-.4-1.12-.52-2.52.33-3.36a3.6,3.6,0,0,1,1.85-.8c.6-.13,1.19-.24,1.79-.33a.8.8,0,0,0,.19-1.52l-2.53-1.05a4.94,4.94,0,0,1-1.92-1.19A4.2,4.2,0,0,1,19.8,338c.31-1.58.85-3.11,1.22-4.68a9.93,9.93,0,0,0,.17-4.78,40.1,40.1,0,0,1,14.15.95,9.93,9.93,0,0,1,3.86,1.69c1.58,1.26,2,3.15,1.82,5.2a.37.37,0,0,0,.69.19l1.61-3a1.93,1.93,0,0,1,2.51-.8,11.69,11.69,0,0,1,3.69,2.9,6.41,6.41,0,0,1,1.58,4.73,40.64,40.64,0,0,1-1.18,6.93.65.65,0,0,0,1,.68L51,348a2.21,2.21,0,0,1,1.52-.45c1.42.18,1.79,1.63,1.88,2.86A24,24,0,0,1,53.9,356.09Z" style="opacity:0.2"></path><path d="M53.9,356.09a11.87,11.87,0,0,1-5.44,7.54A15.28,15.28,0,0,1,40.23,365a35.5,35.5,0,0,1-8.35-2c-1.35-.45-2.84-1.06-3-2.73a3,3,0,0,1,1-2.34,7.88,7.88,0,0,1,.87-.74.87.87,0,0,0-.46-1.55,18.86,18.86,0,0,1-2.38-.29,10.53,10.53,0,0,1-5-2.26,8.25,8.25,0,0,1-2.31-3.42c-.4-1.12-.52-2.52.33-3.36a3.6,3.6,0,0,1,1.85-.8c.6-.13,1.19-.24,1.79-.33a.8.8,0,0,0,.19-1.52l-2.53-1.05a4.94,4.94,0,0,1-1.92-1.19A4.2,4.2,0,0,1,19.8,338c.31-1.58.85-3.11,1.22-4.68a9.93,9.93,0,0,0,.17-4.78,40.1,40.1,0,0,1,14.15.95,9.93,9.93,0,0,1,3.86,1.69c1.58,1.26,2,3.15,1.82,5.2a.37.37,0,0,0,.69.19l1.61-3a1.93,1.93,0,0,1,2.51-.8,11.69,11.69,0,0,1,3.69,2.9,6.41,6.41,0,0,1,1.58,4.73,40.64,40.64,0,0,1-1.18,6.93.65.65,0,0,0,1,.68L51,348a2.21,2.21,0,0,1,1.52-.45c1.42.18,1.79,1.63,1.88,2.86A24,24,0,0,1,53.9,356.09Z" style="fill:#fff;opacity:0.2"></path><path d="M46.4,363.25a57.3,57.3,0,0,0-3.81-11,.39.39,0,0,0-.13-.29l-.27-.58A35.7,35.7,0,0,1,46,338.72a.39.39,0,1,0-.67-.38,36.1,36.1,0,0,0-3.72,11.73c-3.22-6.46-8.36-14-16.29-19.53a.39.39,0,0,0-.54.09.41.41,0,0,0,.09.55c8.19,5.69,13.35,13.58,16.49,20.13a23.74,23.74,0,0,0-13.49-1.82.39.39,0,0,0-.31.45.4.4,0,0,0,.31.31H28c.07,0,7.48-1.36,13.88,2.22a57.08,57.08,0,0,1,3.77,10.92.41.41,0,0,0,.31.31h.15A.39.39,0,0,0,46.4,363.25Z" style="fill:#f0f0f0"></path><path d="M471.4,363.31l-17.16.5-17.15-.5c-.74,11.59,1.52,23.4,4.64,29.17h0a7.82,7.82,0,0,0,3.4,3.45c5.06,2.93,13.24,2.93,18.27,0a7.57,7.57,0,0,0,3.4-3.54C469.9,386.59,472.14,374.84,471.4,363.31Z" style="fill:#fff"></path><path d="M466.34,356.29c6.72,3.88,6.76,10.17.08,14s-17.55,3.88-24.27,0-6.76-10.17-.08-14S459.61,352.4,466.34,356.29Z" style="fill:#ebebeb"></path><path d="M463.68,357.83c5.24,3,5.27,7.94.06,11s-13.69,3-18.93,0-5.27-7.94-.06-11S458.43,354.8,463.68,357.83Z" style="fill:#e0e0e0"></path><g style="opacity:0.15"><path d="M463.68,357.83c5.24,3,5.27,7.94.06,11s-13.69,3-18.93,0-5.27-7.94-.06-11S458.43,354.8,463.68,357.83Z"></path></g><path d="M482.46,290.09c-38.67,12.66-39,38.53-30.31,57,2.2,3.72,8.86,5.73,14.65-17.18l-10.16,1.3,11.84-6,3.07-9.19-9.87.73,12.53-5.27A183.64,183.64,0,0,1,482.46,290.09Z" style="fill:#19A811"></path><path d="M482.46,290.09c-38.67,12.66-39,38.53-30.31,57,2.2,3.72,8.86,5.73,14.65-17.18l-10.16,1.3,11.84-6,3.07-9.19-9.87.73,12.53-5.27A183.64,183.64,0,0,1,482.46,290.09Z" style="opacity:0.2"></path><path d="M482.46,290.09c-38.67,12.66-39,38.53-30.31,57,2.2,3.72,8.86,5.73,14.65-17.18l-10.16,1.3,11.84-6,3.07-9.19-9.87.73,12.53-5.27A183.64,183.64,0,0,1,482.46,290.09Z" style="fill:#fff;opacity:0.2"></path><path d="M471.52,296.56c-20.39,15.48-22.23,33.22-16.47,51.75C453,332,450.81,315.5,471.52,296.56Z" style="fill:#fff"></path><path d="M417,316.37c38.12,5.37,42.74,29.4,37.68,48-1.42,3.84-7.29,6.81-16.49-13.57l9.68-.47-12-3.62-4.39-8.05,9.31-1-12.54-2.83A175.77,175.77,0,0,0,417,316.37Z" style="fill:#19A811"></path><path d="M417,316.37c38.12,5.37,42.74,29.4,37.68,48-1.42,3.84-7.29,6.81-16.49-13.57l9.68-.47-12-3.62-4.39-8.05,9.31-1-12.54-2.83A175.77,175.77,0,0,0,417,316.37Z" style="fill:#fff;opacity:0.2"></path><path d="M417,316.37c38.12,5.37,42.74,29.4,37.68,48-1.42,3.84-7.29,6.81-16.49-13.57l9.68-.47-12-3.62-4.39-8.05,9.31-1-12.54-2.83A175.77,175.77,0,0,0,417,316.37Z" style="opacity:0.1"></path><path d="M428.22,320.58c21.56,11,26.23,27.24,23.94,45.45C451.35,350.5,450.66,334.78,428.22,320.58Z" style="fill:#fff"></path><path d="M493.61,325.38c-34.95.57-41.81,21.71-39.33,39.05.85,3.62,5.81,6.95,16.38-10.38L462,352.54l11.24-1.92,4.86-6.76L469.8,342l11.62-1.14A158.1,158.1,0,0,1,493.61,325.38Z" style="fill:#19A811"></path><path d="M483,327.91c-20.67,7.52-26.68,21.62-26.66,38.29C458.8,352.29,461.18,338.2,483,327.91Z" style="fill:#fff"></path><path d="M493.61,325.38c-34.95.57-41.81,21.71-39.33,39.05.85,3.62,5.81,6.95,16.38-10.38L462,352.54l11.24-1.92,4.86-6.76L469.8,342l11.62-1.14A158.1,158.1,0,0,1,493.61,325.38Z" style="fill:#fff;opacity:0.2"></path></g></svg>